<?xml version="1.0" standalone="no"?>
<!DOCTYPE svg PUBLIC "-//W3C//DTD SVG 20010904//EN"
 "http://www.w3.org/TR/2001/REC-SVG-20010904/DTD/svg10.dtd">
<svg version="1.0" xmlns="http://www.w3.org/2000/svg"
 width="700.000000pt" height="700.000000pt" viewBox="0 0 700.000000 700.000000"
 preserveAspectRatio="xMidYMid meet">

<g transform="translate(0.000000,700.000000) scale(0.100000,-0.100000)"
fill="#000000" stroke="none">
<path d="M4233 6785 c-39 -27 -135 -139 -234 -272 -153 -206 -305 -390 -422
-509 l-69 -72 -42 18 c-90 40 -271 51 -386 24 -36 -8 -93 -30 -126 -49 -51
-27 -61 -30 -57 -15 5 19 -34 213 -69 340 -27 99 -98 248 -136 283 -25 24 -30
26 -29 10 1 -10 -4 -17 -10 -16 -16 4 -17 -9 -1 -25 7 -7 8 -12 2 -12 -6 0
-15 5 -22 12 -7 7 -12 8 -12 2 0 -5 5 -15 11 -21 8 -8 8 -13 0 -17 -6 -4 -11
-2 -11 5 0 8 -4 8 -16 -2 -12 -10 -14 -23 -10 -51 5 -30 3 -38 -9 -38 -18 0
-18 -5 -5 -30 7 -13 6 -21 -5 -30 -9 -7 -15 -8 -15 -2 0 5 -8 13 -17 17 -15 5
-16 4 -5 -6 20 -21 14 -34 -8 -14 -11 10 -18 21 -15 25 2 4 -2 7 -10 7 -19 0
-19 -12 0 -30 11 -12 12 -17 2 -20 -9 -4 -9 -6 1 -6 15 -1 6 -21 -9 -21 -6 0
-8 4 -5 9 4 5 0 12 -6 14 -10 4 -10 6 0 6 7 1 4 9 -8 21 -12 12 -18 25 -15 29
2 5 -2 12 -11 15 -8 3 -12 2 -9 -4 3 -6 0 -10 -8 -10 -10 0 -14 7 -10 23 4 20
4 20 -9 -3 -17 -31 -40 -32 -45 -2 -2 14 1 21 7 17 5 -3 10 1 10 9 0 9 -6 13
-14 10 -7 -3 -16 1 -19 10 -3 8 1 17 9 20 8 3 12 1 9 -4 -3 -5 1 -7 9 -4 9 3
14 10 13 16 -1 5 6 15 16 21 14 10 20 9 27 -3 8 -13 10 -13 10 2 0 9 -5 20
-10 23 -8 5 -8 11 0 20 12 15 -3 31 -19 20 -5 -3 -24 9 -43 27 -18 17 -25 26
-15 18 15 -11 17 -11 11 4 -3 9 -13 16 -21 16 -9 0 -11 5 -7 13 6 9 5 9 -7 0
-13 -10 -16 -10 -16 2 0 8 4 15 9 15 5 0 6 5 3 10 -4 6 -12 7 -18 3 -7 -3 -4
3 6 15 19 20 18 21 -4 15 -13 -4 -30 -11 -38 -17 -23 -18 -144 -139 -166 -166
-55 -70 -105 -137 -105 -143 0 -3 -16 -32 -35 -64 -34 -58 -46 -97 -69 -230
-16 -95 -16 -239 1 -236 7 2 10 -4 6 -13 -5 -13 -8 -13 -15 -2 -7 9 -8 7 -5
-9 3 -14 0 -23 -6 -23 -7 0 -5 -5 3 -10 10 -6 11 -10 3 -10 -7 0 -13 -5 -13
-11 0 -5 4 -7 10 -4 6 3 7 -1 4 -9 -3 -9 -11 -13 -17 -9 -5 3 -7 2 -4 -4 4 -6
-3 -34 -14 -64 -11 -30 -22 -74 -25 -99 -3 -24 -8 -48 -11 -53 -22 -36 -18
-327 7 -439 6 -29 5 -38 -5 -38 -8 0 -17 5 -20 10 -9 15 -37 12 -30 -2 4 -7 1
-6 -7 3 -22 27 -89 43 -178 43 -94 0 -143 -16 -224 -75 -84 -60 -200 -227
-250 -360 -74 -196 -49 -319 89 -454 44 -43 152 -113 159 -103 1 1 17 37 36
78 37 85 133 256 193 345 210 314 509 572 819 707 195 85 286 108 478 124 96
7 249 14 339 14 155 0 169 -2 264 -31 150 -46 357 -132 497 -206 310 -164 352
-185 406 -203 93 -32 154 -24 154 20 0 13 -7 15 -29 12 -34 -5 -161 35 -161
50 0 6 6 8 14 5 39 -15 103 -29 154 -32 l57 -5 55 58 c68 72 139 206 210 395
58 156 140 436 170 580 19 92 26 247 11 247 -15 0 -21 -13 -11 -25 7 -8 4 -20
-11 -39 -12 -15 -16 -25 -11 -24 6 2 10 -1 10 -7 0 -5 -5 -9 -11 -7 -8 2 -8
-1 1 -10 10 -10 8 -16 -10 -31 l-23 -18 23 11 c17 8 22 8 20 -2 -2 -7 -7 -16
-13 -20 -13 -9 -14 -57 -2 -65 6 -4 7 -1 2 7 -5 9 -4 11 4 6 6 -4 9 -12 5 -17
-3 -5 -10 -7 -15 -4 -5 4 -9 1 -9 -5 0 -6 -5 -8 -12 -4 -7 5 -8 3 -2 -7 13
-21 13 -61 -1 -56 -6 3 -11 -5 -11 -18 0 -13 2 -23 6 -22 3 1 5 -3 5 -8 0 -6
-5 -9 -11 -7 -7 1 -11 -5 -9 -15 2 -10 4 -18 5 -18 1 0 3 -8 5 -17 3 -15 0
-16 -17 -7 -13 7 -18 7 -14 1 3 -6 3 -12 -1 -15 -5 -2 -1 -2 7 0 8 2 11 1 7
-3 -4 -4 -2 -13 4 -20 7 -8 7 -14 -1 -19 -6 -4 -9 -1 -8 6 2 6 -2 13 -9 16 -7
2 -10 -3 -8 -14 2 -10 4 -18 5 -18 1 0 3 -8 5 -18 2 -9 0 -15 -5 -12 -12 8
-41 -6 -34 -16 3 -5 0 -9 -7 -9 -7 0 -10 -2 -7 -5 10 -10 38 7 31 19 -3 6 -2
7 2 3 16 -14 14 -36 -3 -30 -9 4 -13 2 -9 -4 5 -7 -1 -9 -15 -6 -22 4 -22 3 2
-11 14 -8 19 -15 12 -16 -7 0 -10 -4 -7 -10 4 -7 -3 -7 -20 0 -37 14 -45 12
-16 -4 14 -8 25 -20 27 -29 1 -12 -4 -13 -27 -7 -34 10 -39 3 -6 -10 20 -8 20
-9 2 -10 -17 0 -18 -2 -5 -11 12 -8 8 -9 -15 -5 l-30 5 30 -14 c24 -11 26 -14
10 -15 l-20 -1 20 -10 c15 -7 10 -8 -20 -5 l-40 4 30 -13 c23 -11 26 -14 10
-15 -17 0 -17 -2 -5 -10 12 -8 12 -10 -5 -10 -17 0 -17 -2 -5 -10 12 -8 10
-10 -10 -11 -23 0 -24 -1 -5 -10 17 -8 16 -9 -7 -6 -31 5 -39 -9 -10 -16 11
-3 9 -5 -8 -6 -20 -1 -22 -3 -10 -11 12 -8 10 -10 -10 -11 -23 0 -23 -1 -5 -9
20 -9 15 -12 -20 -13 -16 0 -17 -1 -2 -4 34 -9 16 -21 -25 -17 -35 3 -31 1 17
-10 l60 -13 -45 -3 c-42 -2 -43 -3 -15 -10 28 -7 27 -8 -15 -10 l-45 -2 45
-13 45 -14 -50 6 c-59 7 -53 -8 8 -18 l42 -6 -55 -3 c-44 -2 -50 -4 -30 -10
20 -6 15 -8 -24 -9 -56 -1 -58 -9 -4 -13 68 -4 29 -15 -44 -12 l-73 3 90 -14
90 -13 -71 1 c-40 0 -103 6 -140 12 l-69 13 50 2 50 3 -60 13 -60 13 90 -4 90
-4 -90 15 c-114 18 -123 22 -55 24 61 2 58 5 -15 16 l-50 8 50 6 50 6 -65 11
-65 12 80 -4 c91 -4 65 9 -41 20 -83 9 -90 20 -11 18 l62 -1 -75 13 -75 14 58
-3 c32 -1 60 1 63 6 3 4 -10 9 -28 9 -18 1 -46 5 -63 10 -26 7 -23 8 18 6 66
-3 58 8 -15 21 l-63 11 80 -4 c93 -4 85 0 -40 20 l-90 15 85 -4 c93 -5 71 5
-55 23 l-70 10 90 -5 c49 -3 103 -7 120 -10 l30 -4 -30 10 c-16 5 -63 13 -103
16 -82 8 -88 18 -9 17 l52 -2 -70 14 c-64 13 -66 14 -17 10 29 -2 52 0 52 5 0
6 -12 10 -27 11 -53 1 -148 11 -153 16 -3 2 18 4 45 3 66 -2 78 1 35 10 -34 7
-34 7 15 10 l50 3 -40 7 c-39 7 -38 7 20 10 33 2 47 5 30 7 -16 2 -50 6 -75
10 l-45 7 35 7 35 6 -42 2 c-24 0 -43 5 -43 10 0 16 -32 22 -48 9 -12 -10 -14
-10 -8 0 5 9 -3 12 -31 14 l-38 1 45 7 c38 6 41 7 15 10 -23 2 -19 5 20 10 49
7 49 7 -21 8 -55 2 -71 5 -71 17 0 8 7 15 14 15 11 0 11 3 1 13 -10 12 -15 12
-26 0 -15 -15 -41 -17 -60 -4 -11 7 -10 9 3 14 9 4 13 3 10 -3 -3 -6 1 -10 9
-10 13 0 12 6 -5 36 -21 39 -19 55 6 34 12 -10 15 -10 15 0 0 7 -8 18 -17 25
-15 11 -13 12 17 9 26 -3 31 -1 22 8 -8 8 18 29 111 84 67 41 126 74 131 74 5
0 23 15 40 33 17 19 37 32 44 29 16 -5 16 15 0 22 -7 3 -3 3 10 0 21 -5 33 11
13 18 -5 2 -1 14 10 27 10 13 19 18 19 13 0 -6 -4 -14 -10 -17 -15 -9 -12 -22
6 -29 9 -3 12 -2 9 5 -4 5 -1 17 6 25 6 8 9 18 5 21 -4 4 4 13 16 20 24 13 23
13 -24 17 -20 2 -28 19 -16 33 8 10 7 12 -6 7 -9 -3 -16 -12 -16 -19 0 -13
-29 -29 -38 -20 -3 2 3 7 12 11 16 6 13 24 -5 24 -6 0 -8 -4 -5 -9 3 -5 -1
-12 -10 -15 -24 -9 -27 -8 -21 14 3 11 2 20 -3 20 -11 0 -21 -30 -15 -41 4 -5
-1 -6 -9 -3 -9 3 -14 9 -11 14 2 4 -7 12 -21 19 -36 16 -40 14 -13 -9 l24 -19
-29 7 c-21 6 -30 15 -31 30 -1 12 1 22 5 22 4 0 12 11 18 24 9 19 8 23 -5 22
-9 0 -18 6 -20 14 -4 12 -3 12 5 1 7 -10 11 -10 17 -1 4 7 2 16 -5 20 -9 5 -9
9 -1 14 6 4 8 13 4 19 -4 7 1 5 11 -3 17 -14 18 -13 12 18 -7 28 -5 31 11 26
15 -5 15 -4 3 4 -12 9 -11 17 10 54 13 24 29 47 37 51 18 11 17 28 -2 21 -8
-4 -15 -1 -15 5 0 6 3 10 8 10 25 -4 39 5 49 32 10 26 10 29 -3 19 -20 -18
-19 4 3 38 15 23 15 25 1 14 -13 -10 -17 -10 -21 3 -4 8 -3 14 1 14 18 -3 20
3 10 31 -7 23 -7 34 2 45 20 24 8 24 -27 0z m-1806 -279 c-14 -11 -15 -15 -5
-20 7 -3 3 -3 -9 0 -17 4 -23 1 -24 -13 0 -13 -2 -14 -6 -4 -6 14 32 51 52 50
6 0 2 -6 -8 -13z m-72 -65 c-6 -5 -25 10 -25 20 0 5 6 4 14 -3 8 -7 12 -15 11
-17z m-11 -30 c3 -5 -2 -15 -12 -22 -15 -13 -16 -12 -4 3 10 13 10 17 0 21 -9
4 -9 6 -1 6 6 1 14 -3 17 -8z m12 -58 c4 -10 6 -22 5 -27 -1 -5 5 -6 13 -3 10
4 13 1 9 -9 -5 -13 -10 -12 -28 8 -21 22 -29 48 -14 48 4 0 10 -8 15 -17z
m-36 -23 c0 -5 -2 -10 -4 -10 -3 0 -8 5 -11 10 -3 6 -1 10 4 10 6 0 11 -4 11
-10z m126 -2 c-12 -7 -21 -7 -28 0 -6 6 0 10 18 10 23 0 24 -2 10 -10z m24
-18 c0 -5 -2 -10 -4 -10 -3 0 -8 5 -11 10 -3 6 -1 10 4 10 6 0 11 -4 11 -10z
m-55 -40 c10 -11 16 -20 13 -20 -3 0 -13 9 -23 20 -10 11 -16 20 -13 20 3 0
13 -9 23 -20z m1702 -62 c-16 -10 -21 -2 -13 19 6 15 9 15 16 3 6 -9 5 -17 -3
-22z m-1942 -277 c3 -5 20 -13 38 -16 42 -10 103 -41 148 -76 20 -16 41 -29
47 -29 5 0 37 -26 71 -58 60 -57 78 -88 44 -75 -11 4 -14 3 -9 -5 5 -8 2 -10
-8 -6 -9 3 -14 9 -12 13 3 4 -11 8 -30 8 -18 1 -31 -3 -28 -8 9 -14 -3 -10
-21 7 -12 13 -18 14 -31 4 -12 -11 -13 -10 -7 6 6 17 5 17 -10 6 -9 -8 -22
-10 -28 -6 -7 4 -9 3 -6 -3 4 -6 -12 -10 -42 -9 -38 1 -47 4 -43 16 3 8 -10 2
-28 -15 l-34 -30 17 27 c12 19 14 29 5 34 -6 4 -8 3 -5 -3 4 -6 0 -13 -8 -17
-11 -4 -15 2 -15 22 0 19 -3 23 -9 13 -6 -9 -11 -10 -15 -2 -4 6 -4 15 -1 21
4 6 -1 7 -12 3 -16 -6 -17 -5 -3 12 14 17 14 18 -7 6 -13 -6 -23 -10 -23 -7 0
2 -3 13 -6 23 -5 15 -4 16 6 3 10 -13 11 -13 7 0 -2 8 -11 14 -20 14 -10 -1
-13 4 -10 14 4 10 2 13 -5 8 -7 -4 -12 -3 -12 3 0 5 6 12 13 14 6 3 3 6 -8 6
-17 1 -17 3 -5 11 10 6 11 10 3 10 -26 0 -6 25 37 47 51 25 57 27 65 14z
m1700 -89 c-3 -3 -11 0 -18 7 -9 10 -8 11 6 5 10 -3 15 -9 12 -12z m25 -30 c0
-4 -10 -13 -22 -21 -23 -14 -23 -14 -4 8 20 22 26 25 26 13z m-745 -22 c-9
-14 8 -13 23 2 9 9 11 6 7 -11 -3 -17 0 -21 11 -17 9 3 12 1 9 -4 -8 -14 8
-13 22 1 13 13 13 -7 0 -28 -10 -16 5 -17 20 -2 17 17 11 -14 -6 -35 -20 -24
-1 -19 28 7 19 17 22 17 11 3 -14 -18 -13 -19 5 -13 14 5 10 0 -10 -17 -16
-14 -25 -25 -19 -26 5 0 16 6 23 13 11 10 12 9 6 -2 -6 -11 -4 -13 7 -8 14 5
17 -8 8 -33 -1 -3 -2 -7 -2 -10 0 -3 -8 -6 -18 -6 -14 0 -16 4 -9 12 7 8 6 14
-1 19 -13 8 -32 -3 -25 -15 3 -5 1 -11 -4 -14 -5 -4 -8 2 -6 11 2 10 4 18 5
18 1 0 3 8 5 18 2 11 -2 16 -8 14 -7 -2 -12 -9 -12 -15 0 -6 -7 -17 -15 -24
-12 -11 -12 -11 -1 5 7 9 9 17 4 17 -13 0 -45 -35 -38 -42 3 -2 -2 -5 -10 -5
-12 0 -11 5 5 22 11 12 17 25 13 30 -5 4 -3 5 4 1 14 -8 27 10 13 19 -6 4 -8
10 -5 15 3 4 -2 11 -11 14 -8 3 -12 2 -9 -3 3 -5 0 -13 -6 -17 -8 -5 -9 -3 -4
6 6 10 4 12 -7 7 -17 -6 -19 8 -5 31 8 11 -5 17 -28 12 -5 -1 -1 8 9 19 11 12
16 21 12 21 -4 0 -4 5 -1 10 3 6 8 10 11 10 3 0 2 -4 -1 -10z m732 -46 c-3 -3
-12 -4 -19 -1 -8 3 -5 6 6 6 11 1 17 -2 13 -5z m86 -31 c-7 -2 -19 -2 -25 0
-7 3 -2 5 12 5 14 0 19 -2 13 -5z m-1663 -54 c0 -6 -4 -7 -10 -4 -5 3 -10 11
-10 16 0 6 5 7 10 4 6 -3 10 -11 10 -16z m1747 -15 c-3 -3 -12 -4 -19 -1 -8 3
-5 6 6 6 11 1 17 -2 13 -5z m46 -1 c-7 -2 -19 -2 -25 0 -7 3 -2 5 12 5 14 0
19 -2 13 -5z m-80 -20 c-7 -2 -21 -2 -30 0 -10 3 -4 5 12 5 17 0 24 -2 18 -5z
m105 0 c-10 -2 -26 -2 -35 0 -10 3 -2 5 17 5 19 0 27 -2 18 -5z m-918 -17 c0
-2 -8 -10 -17 -17 -16 -13 -17 -12 -4 4 13 16 21 21 21 13z m988 -163 c-10 -2
-26 -2 -35 0 -10 3 -2 5 17 5 19 0 27 -2 18 -5z m35 -30 c-7 -2 -19 -2 -25 0
-7 3 -2 5 12 5 14 0 19 -2 13 -5z m24 -29 c-3 -3 -12 -4 -19 -1 -8 3 -5 6 6 6
11 1 17 -2 13 -5z m10 -30 c-3 -3 -12 -4 -19 -1 -8 3 -5 6 6 6 11 1 17 -2 13
-5z m10 -30 c-3 -3 -12 -4 -19 -1 -8 3 -5 6 6 6 11 1 17 -2 13 -5z m46 -31
c-7 -2 -21 -2 -30 0 -10 3 -4 5 12 5 17 0 24 -2 18 -5z m65 -90 c-10 -2 -28
-2 -40 0 -13 2 -5 4 17 4 22 1 32 -1 23 -4z m177 -43 l50 -8 -55 0 c-30 0 -89
6 -130 13 l-75 14 80 -6 c44 -3 103 -9 130 -13z m-132 -17 c-7 -2 -21 -2 -30
0 -10 3 -4 5 12 5 17 0 24 -2 18 -5z m90 -10 c-13 -2 -33 -2 -45 0 -13 2 -3 4
22 4 25 0 35 -2 23 -4z m87 -9 c0 -2 -13 -4 -30 -4 -16 0 -30 4 -30 8 0 5 14
7 30 4 17 -2 30 -6 30 -8z m-142 -11 c-10 -2 -26 -2 -35 0 -10 3 -2 5 17 5 19
0 27 -2 18 -5z m115 -10 c-13 -2 -35 -2 -50 0 -16 2 -5 4 22 4 28 0 40 -2 28
-4z"/>
<path d="M3156 5767 c-18 -13 -18 -14 -1 -21 13 -5 15 -9 6 -20 -9 -11 -6 -13
18 -10 25 3 29 0 26 -15 -2 -11 3 -22 13 -26 9 -3 13 -3 9 1 -4 4 1 16 10 27
10 11 12 17 6 13 -19 -11 -36 3 -23 19 8 10 4 12 -19 9 -25 -3 -29 0 -26 16 5
24 4 24 -19 7z"/>
<path d="M2410 6550 c0 -5 5 -10 11 -10 5 0 7 5 4 10 -3 6 -8 10 -11 10 -2 0
-4 -4 -4 -10z"/>
<path d="M2406 6421 c-4 -7 -5 -15 -2 -18 9 -9 19 4 14 18 -4 11 -6 11 -12 0z"/>
<path d="M4156 6299 c-11 -11 -15 -19 -9 -19 12 0 38 28 32 34 -2 2 -13 -5
-23 -15z"/>
<path d="M4176 6282 c-3 -6 -1 -14 5 -17 14 -9 20 -2 10 14 -6 8 -11 9 -15 3z"/>
<path d="M5025 6270 c3 -5 8 -10 11 -10 2 0 4 5 4 10 0 6 -5 10 -11 10 -5 0
-7 -4 -4 -10z"/>
<path d="M4346 6251 c-3 -5 1 -11 9 -14 9 -4 12 -1 8 9 -6 16 -10 17 -17 5z"/>
<path d="M4380 6249 c0 -5 5 -7 10 -4 6 3 10 8 10 11 0 2 -4 4 -10 4 -5 0 -10
-5 -10 -11z"/>
<path d="M4383 6194 c-5 -13 -7 -13 -14 -2 -7 10 -9 9 -9 -4 0 -24 17 -23 30
2 6 11 8 20 5 20 -3 0 -8 -7 -12 -16z"/>
<path d="M4947 5939 c7 -7 15 -10 18 -7 3 3 -2 9 -12 12 -14 6 -15 5 -6 -5z"/>
<path d="M3980 5816 c0 -2 7 -7 16 -10 8 -3 12 -2 9 4 -6 10 -25 14 -25 6z"/>
<path d="M4008 5763 c7 -3 16 -2 19 1 4 3 -2 6 -13 5 -11 0 -14 -3 -6 -6z"/>
<path d="M4008 5743 c12 -2 32 -2 45 0 12 2 2 4 -23 4 -25 0 -35 -2 -22 -4z"/>
<path d="M4890 5730 c8 -5 20 -10 25 -10 6 0 3 5 -5 10 -8 5 -19 10 -25 10 -5
0 -3 -5 5 -10z"/>
<path d="M4075 5700 c4 -6 10 -8 15 -5 4 3 10 -2 14 -10 4 -10 18 -14 48 -13
l43 1 -38 4 c-29 3 -37 8 -33 19 4 10 -3 14 -25 14 -18 0 -28 -4 -24 -10z"/>
<path d="M4173 5693 c9 -2 25 -2 35 0 9 3 1 5 -18 5 -19 0 -27 -2 -17 -5z"/>
<path d="M4195 5650 c3 -5 16 -10 28 -9 21 0 21 1 2 9 -28 12 -37 12 -30 0z"/>
<path d="M4288 5613 c7 -3 16 -2 19 1 4 3 -2 6 -13 5 -11 0 -14 -3 -6 -6z"/>
<path d="M4237 5599 c7 -7 15 -10 18 -7 3 3 -2 9 -12 12 -14 6 -15 5 -6 -5z"/>
<path d="M4830 5600 c8 -5 22 -9 30 -9 10 0 8 3 -5 9 -27 12 -43 12 -25 0z"/>
<path d="M4218 5573 c12 -2 32 -2 45 0 12 2 2 4 -23 4 -25 0 -35 -2 -22 -4z"/>
<path d="M4323 5513 c9 -2 23 -2 30 0 6 3 -1 5 -18 5 -16 0 -22 -2 -12 -5z"/>
<path d="M4758 5463 c7 -3 16 -2 19 1 4 3 -2 6 -13 5 -11 0 -14 -3 -6 -6z"/>
<path d="M4738 5443 c7 -3 16 -2 19 1 4 3 -2 6 -13 5 -11 0 -14 -3 -6 -6z"/>
<path d="M4383 5403 c9 -2 23 -2 30 0 6 3 -1 5 -18 5 -16 0 -22 -2 -12 -5z"/>
<path d="M4708 5403 c7 -3 16 -2 19 1 4 3 -2 6 -13 5 -11 0 -14 -3 -6 -6z"/>
<path d="M4458 5393 c7 -3 16 -2 19 1 4 3 -2 6 -13 5 -11 0 -14 -3 -6 -6z"/>
<path d="M4418 5373 c7 -3 16 -2 19 1 4 3 -2 6 -13 5 -11 0 -14 -3 -6 -6z"/>
<path d="M4478 5363 c6 -2 18 -2 25 0 6 3 1 5 -13 5 -14 0 -19 -2 -12 -5z"/>
<path d="M4438 5343 c6 -2 18 -2 25 0 6 3 1 5 -13 5 -14 0 -19 -2 -12 -5z"/>
<path d="M4473 5283 c9 -2 25 -2 35 0 9 3 1 5 -18 5 -19 0 -27 -2 -17 -5z"/>
<path d="M4493 5253 c9 -2 25 -2 35 0 9 3 1 5 -18 5 -19 0 -27 -2 -17 -5z"/>
<path d="M4573 5243 c9 -2 23 -2 30 0 6 3 -1 5 -18 5 -16 0 -22 -2 -12 -5z"/>
<path d="M4877 5104 c-109 -26 -216 -92 -268 -165 -17 -24 -19 -35 -11 -52 5
-12 62 -80 125 -151 144 -159 196 -234 299 -428 91 -173 107 -198 157 -250 39
-42 61 -48 61 -19 0 12 23 38 60 66 62 48 149 145 174 193 41 83 45 212 7 298
-11 24 -17 44 -13 44 4 0 2 4 -3 8 -6 4 -37 54 -69 112 -32 58 -69 116 -84
130 l-26 25 27 -37 c33 -45 84 -154 89 -188 2 -14 7 -31 12 -39 12 -19 -14
-33 -31 -16 -7 8 -13 18 -13 24 0 6 -4 11 -9 11 -8 0 -54 69 -53 80 0 3 -7 13
-15 23 -9 9 -13 17 -9 17 8 0 -9 22 -36 48 -10 9 -18 20 -18 24 0 5 -8 17 -17
27 -10 10 -29 35 -43 55 -14 19 -28 36 -32 36 -4 0 -31 23 -59 51 -34 34 -48
53 -40 58 7 5 -4 12 -27 19 -48 15 -61 14 -135 -4z"/>
<path d="M1925 4068 c-64 -34 -176 -154 -218 -234 -37 -72 -45 -108 -28 -119
5 -3 25 21 45 53 48 79 111 150 165 184 63 39 69 35 23 -17 -162 -184 -220
-553 -114 -725 88 -143 218 -87 330 142 71 146 87 213 87 383 0 153 -15 221
-61 283 -53 69 -152 91 -229 50z m198 -188 c75 -59 45 -190 -55 -241 -111 -56
-188 49 -125 171 40 81 125 113 180 70z m-219 -496 c20 -19 20 -57 1 -94 -21
-41 -54 -49 -78 -19 -24 30 -16 76 19 107 30 26 38 27 58 6z"/>
<path d="M3837 3799 c-43 -4 -111 -17 -150 -28 -148 -41 -399 -159 -463 -218
-34 -31 -41 -71 -18 -92 16 -15 52 -20 224 -30 114 -6 248 -19 301 -30 82 -16
222 -59 281 -85 13 -6 20 -1 29 17 17 38 -13 82 -91 129 -104 63 -296 114
-394 106 -55 -4 -49 3 29 31 113 42 218 61 395 72 191 12 213 18 193 62 -15
32 -66 55 -149 67 -77 11 -77 11 -187 -1z"/>
<path d="M2546 3416 c-88 -33 -104 -96 -50 -195 58 -107 158 -155 244 -118 82
35 180 151 180 213 0 38 -40 77 -98 95 -60 19 -231 22 -276 5z"/>
<path d="M5560 3270 c-24 -8 -23 -8 8 -9 20 -1 31 3 27 9 -3 6 -7 10 -8 9 -1
-1 -13 -5 -27 -9z"/>
<path d="M5659 3269 c-10 -6 -4 -9 19 -9 17 0 32 2 32 4 0 9 -39 13 -51 5z"/>
<path d="M5360 3251 c-102 -27 -123 -41 -136 -86 -16 -52 -17 -117 -2 -152 6
-15 11 -37 10 -48 0 -15 1 -16 4 -3 5 14 11 14 62 -7 31 -12 98 -35 147 -50
94 -29 172 -65 290 -134 83 -49 202 -96 266 -105 68 -10 131 10 184 56 79 69
117 178 95 266 -6 26 -15 49 -19 52 -5 3 -20 23 -35 44 -14 21 -26 35 -26 31
0 -5 -8 -1 -17 7 -29 24 -41 29 -48 18 -4 -6 -3 -10 2 -9 20 3 34 -2 28 -11
-4 -6 -1 -9 6 -8 7 2 13 -2 14 -9 0 -6 4 -15 9 -20 5 -5 6 -3 2 5 -4 6 -2 12
3 12 12 0 14 -6 14 -45 0 -46 -3 -56 -13 -50 -6 4 -8 12 -4 18 3 7 -1 5 -8 -4
-12 -15 -16 -15 -43 -1 -17 8 -33 19 -36 24 -3 5 -9 9 -13 9 -14 -1 -36 12
-31 19 3 4 -3 14 -12 21 -14 12 -15 12 -9 1 7 -11 4 -12 -13 -3 -11 7 -21 14
-21 17 0 3 4 3 9 -1 5 -3 12 -1 16 4 3 6 -4 8 -16 6 -14 -3 -28 4 -41 21 -16
20 -23 22 -34 13 -11 -9 -14 -8 -14 2 0 11 -3 11 -11 -1 -9 -12 -10 -11 -6 6
3 13 -1 21 -9 21 -7 0 -11 -4 -8 -9 3 -4 -4 -8 -15 -8 -11 0 -23 5 -26 10 -4
6 -11 8 -16 5 -8 -6 -13 9 -10 28 1 5 -3 6 -8 2 -6 -3 -8 -12 -4 -20 5 -16 -5
-19 -31 -9 -9 3 -13 11 -9 17 3 6 1 7 -6 3 -6 -4 -9 -12 -6 -17 4 -5 1 -9 -5
-9 -6 0 -8 -5 -4 -12 5 -7 3 -8 -5 -4 -7 5 -10 15 -7 23 3 8 1 11 -4 8 -9 -5
-19 -8 -65 -18 -5 -2 -15 -6 -21 -9 -6 -4 -22 -1 -37 7 -15 8 -27 9 -27 4 0
-11 -38 -8 -59 5 -9 6 -12 5 -8 -1 4 -6 0 -13 -8 -17 -8 -3 -17 0 -21 6 -5 7
-2 8 6 3 9 -5 11 -4 6 4 -6 9 -11 9 -22 0 -8 -6 -14 -8 -14 -4 0 4 -8 1 -17
-6 -9 -8 -14 -9 -10 -3 4 7 -4 9 -24 6 -16 -2 -29 -9 -29 -14 0 -7 -4 -7 -12
-1 -7 6 -26 9 -43 8 -16 -1 -41 2 -55 8 -14 6 -29 9 -33 8 -5 -1 -7 4 -4 11 2
7 10 12 16 10 7 -1 10 1 7 6 -6 9 69 37 126 47 21 3 40 10 43 15 8 13 3 12
-75 -9z m611 -118 c13 -16 12 -17 -3 -4 -10 7 -18 15 -18 17 0 8 8 3 21 -13z"/>
<path d="M5764 3259 c-3 -5 9 -9 25 -9 17 0 31 2 31 4 0 8 -51 13 -56 5z"/>
<path d="M5735 3251 c-3 -5 -2 -12 3 -15 5 -3 9 1 9 9 0 17 -3 19 -12 6z"/>
<path d="M5836 3252 c-3 -4 4 -9 15 -9 23 -2 25 3 4 10 -8 4 -16 3 -19 -1z"/>
<path d="M5880 3239 c0 -5 5 -7 10 -4 6 3 10 8 10 11 0 2 -4 4 -10 4 -5 0 -10
-5 -10 -11z"/>
<path d="M5928 3233 c12 -2 20 -7 18 -11 -2 -4 12 -8 33 -8 l36 -2 -35 13
c-19 8 -44 13 -55 13 -17 -1 -16 -1 3 -5z"/>
<path d="M5863 3215 c0 -8 4 -12 9 -9 5 3 6 10 3 15 -9 13 -12 11 -12 -6z"/>
<path d="M6030 3200 c8 -5 20 -10 25 -10 6 0 3 5 -5 10 -8 5 -19 10 -25 10 -5
0 -3 -5 5 -10z"/>
<path d="M5647 3171 c-10 -14 -10 -14 4 -4 9 7 18 10 21 7 3 -3 8 -1 12 4 9
16 -24 9 -37 -7z"/>
<path d="M6059 3178 c-11 -7 -9 -8 5 -4 14 5 17 3 12 -11 -6 -14 -5 -15 5 -6
9 9 17 9 33 1 18 -10 19 -9 8 4 -17 21 -46 28 -63 16z"/>
<path d="M2958 2919 c-119 -39 -261 -48 -416 -25 -62 9 -117 14 -122 11 -17
-11 -11 -42 29 -147 63 -168 135 -309 187 -368 118 -131 276 -133 346 -5 64
115 115 319 120 475 l3 85 -30 2 c-16 1 -69 -12 -117 -28z"/>
<path d="M1070 2897 c-217 -65 -347 -194 -365 -361 -9 -79 15 -177 53 -226 76
-96 261 -125 347 -55 30 25 30 25 8 31 -13 4 -23 10 -23 15 0 5 -20 19 -44 30
-31 16 -48 32 -59 58 -9 20 -25 46 -34 56 -10 11 -29 42 -42 69 -21 43 -23 58
-17 120 8 93 12 112 30 138 18 25 44 32 63 16 7 -6 13 -7 13 -3 0 18 80 -80
99 -121 45 -96 74 -199 75 -266 1 -52 4 -64 14 -56 6 6 12 16 12 23 0 8 5 15
10 17 6 2 16 36 22 76 8 56 18 82 42 114 l32 42 -33 135 c-18 74 -33 143 -33
153 0 26 -74 23 -170 -5z"/>
<path d="M3950 1219 c-47 -15 -129 -38 -184 -51 l-98 -23 6 -55 c4 -30 25
-145 47 -255 101 -502 164 -628 333 -666 77 -17 385 -7 454 15 122 39 187 151
145 247 -11 24 -46 71 -78 104 -131 136 -282 336 -468 628 -31 48 -60 87 -64
86 -5 -1 -46 -14 -93 -30z"/>
<path d="M2955 1129 c-2 -8 -18 -88 -35 -179 -42 -226 -72 -334 -126 -459 -70
-159 -71 -221 -7 -292 48 -53 91 -74 193 -95 69 -14 97 -15 159 -6 159 23 266
76 316 156 30 49 30 50 28 185 -1 137 -42 448 -79 607 l-17 71 -176 7 c-97 3
-193 9 -213 12 -27 4 -39 2 -43 -7z"/>
</g>
</svg>
