<?xml version="1.0" standalone="no"?>
<!DOCTYPE svg PUBLIC "-//W3C//DTD SVG 20010904//EN"
 "http://www.w3.org/TR/2001/REC-SVG-20010904/DTD/svg10.dtd">
<svg version="1.0" xmlns="http://www.w3.org/2000/svg"
 width="779.000000pt" height="438.000000pt" viewBox="0 0 779.000000 438.000000"
 preserveAspectRatio="xMidYMid meet">

<g transform="translate(0.000000,438.000000) scale(0.100000,-0.100000)"
fill="#000000" stroke="none">
<path d="M3881 4265 c-40 -11 -63 -13 -90 -5 -98 27 -287 -2 -411 -64 -82 -42
-213 -122 -277 -171 -26 -20 -49 -31 -53 -26 -9 15 -185 67 -313 93 -92 19
-144 23 -292 23 -226 -1 -336 -22 -543 -104 -53 -21 -213 -108 -222 -121 -3
-3 -30 -25 -60 -47 -58 -43 -159 -138 -223 -210 -53 -60 -176 -253 -226 -354
-168 -343 -227 -800 -155 -1191 27 -146 58 -259 109 -395 65 -174 131 -290
325 -572 37 -53 175 -230 215 -275 6 -6 36 -45 69 -86 72 -92 105 -122 129
-114 10 3 32 7 50 10 18 2 37 10 43 19 6 8 18 15 27 15 9 0 18 4 21 9 4 5 39
22 79 37 39 15 77 32 84 37 13 9 153 6 147 -4 -12 -21 148 -1 166 20 3 3 23 7
44 8 22 2 44 7 50 13 5 5 18 10 29 10 10 0 16 4 13 9 -4 5 3 7 14 4 11 -3 20
-1 20 5 0 5 27 22 60 38 47 23 61 35 66 58 3 15 35 84 70 153 35 69 64 133 64
142 0 10 4 21 9 27 5 5 11 20 13 34 1 14 9 31 16 38 6 7 12 22 12 33 0 11 7
34 16 51 18 36 13 65 -22 117 -31 48 -95 197 -87 205 4 3 2 6 -4 6 -6 0 -13
12 -16 27 -3 16 -9 40 -13 56 -5 22 -3 26 9 21 17 -6 31 11 22 26 -5 8 -11 8
-20 0 -8 -7 -15 -7 -19 -1 -4 5 -2 12 4 16 18 11 11 25 -12 25 -13 0 -18 4
-13 8 6 4 15 17 22 28 9 17 9 26 -4 44 -14 20 -17 21 -25 6 -11 -19 -61 -21
-77 -2 -6 7 -13 33 -15 58 -5 47 -18 83 -61 158 -14 25 -25 55 -25 67 0 23
-23 102 -41 138 -5 11 -12 29 -14 40 -3 11 -8 36 -13 55 -12 51 16 220 41 244
14 14 46 29 67 30 19 1 43 -29 58 -73 10 -29 10 -37 -5 -51 -17 -16 -20 -15
-56 16 -44 40 -53 42 -60 12 -6 -20 19 -78 34 -78 3 0 11 -18 17 -39 9 -28 19
-41 36 -45 23 -6 38 -30 41 -68 2 -25 36 -71 45 -62 4 5 10 56 14 114 7 118
13 150 30 150 12 0 36 67 36 103 0 38 28 70 56 63 13 -4 24 -2 24 3 0 5 -9 11
-21 14 -17 4 -19 10 -14 29 4 13 11 25 15 28 4 3 15 28 25 55 11 28 22 52 25
55 3 3 6 16 7 30 2 51 45 226 74 304 44 120 83 190 144 260 11 13 25 32 31 42
6 11 45 45 86 77 75 58 78 59 199 83 277 54 254 47 251 77 -2 15 -1 27 2 27 8
0 80 -43 94 -57 16 -16 64 -27 174 -42 103 -14 156 -30 268 -85 99 -48 145
-92 194 -188 37 -72 43 -94 26 -100 -11 -4 18 -98 30 -98 16 0 32 -68 21 -87
-11 -19 -12 -17 -16 40 -2 27 -20 55 -29 46 -7 -6 15 -92 25 -104 15 -15 10
-89 -7 -113 -14 -20 -14 -23 0 -28 9 -3 16 -11 16 -16 0 -6 -6 -8 -14 -5 -9 4
-5 -8 10 -30 28 -42 31 -80 7 -86 -10 -3 4 -3 30 -1 43 2 48 1 42 -14 -15 -36
-10 -47 23 -50 26 -3 32 -7 32 -28 0 -13 6 -24 13 -24 8 0 8 -3 -2 -9 -12 -8
-12 -13 3 -35 9 -15 14 -31 11 -36 -3 -5 2 -36 11 -69 13 -47 15 -66 6 -84 -6
-12 -11 -31 -11 -42 -2 -47 0 -99 5 -107 9 -14 24 2 24 23 0 18 2 19 15 5 8
-8 15 -23 14 -33 0 -10 -3 -13 -6 -5 -2 6 -9 12 -14 12 -6 0 -8 -4 -5 -9 3 -5
-1 -14 -9 -21 -7 -6 -11 -18 -9 -25 4 -8 -3 -15 -18 -17 -14 -2 -22 -9 -20
-18 2 -7 -2 -24 -9 -36 -8 -15 -9 -40 -4 -76 4 -29 8 -82 10 -118 1 -53 5 -64
17 -62 13 2 17 -9 20 -53 1 -30 0 -55 -4 -55 -5 0 -8 -8 -8 -17 0 -9 -6 -24
-14 -32 -18 -21 -32 -66 -18 -57 6 3 14 2 17 -4 4 -6 15 -8 26 -5 15 5 19 1
19 -18 0 -13 -3 -27 -7 -31 -11 -10 -33 -79 -33 -103 0 -12 -4 -24 -9 -27 -5
-3 -12 -18 -16 -33 -12 -48 -53 -127 -85 -161 -30 -33 -39 -65 -21 -77 5 -3
13 -36 16 -73 6 -57 31 -143 64 -217 5 -11 19 -48 32 -82 13 -34 27 -59 33
-56 5 3 6 1 2 -6 -4 -6 -1 -23 8 -36 9 -13 16 -30 16 -37 1 -30 20 -43 68 -44
34 0 67 -10 103 -29 30 -16 68 -35 84 -44 19 -10 58 -15 107 -16 42 0 75 -2
73 -5 -2 -3 24 -17 58 -30 34 -13 76 -32 92 -42 79 -46 132 -69 159 -71 17 -1
37 -8 45 -15 8 -8 22 -11 32 -9 10 3 17 0 16 -6 -1 -7 21 -19 48 -29 49 -17
50 -17 68 5 11 12 38 42 60 67 35 38 151 177 180 215 4 5 19 24 33 40 14 17
59 75 100 130 41 55 85 113 97 129 26 34 99 142 145 214 45 70 152 283 152
303 0 8 4 19 9 25 8 8 30 74 81 239 49 160 78 599 50 756 -5 30 -17 97 -26
149 -9 52 -22 113 -29 135 -8 22 -23 72 -35 110 -20 65 -31 92 -96 230 -64
138 -188 310 -302 422 -70 69 -189 165 -242 194 -14 8 -27 16 -30 19 -3 3 -40
22 -83 43 -337 164 -729 180 -1137 46 -50 -16 -84 -33 -82 -40 2 -6 -19 5 -45
24 -225 168 -387 253 -493 262 -42 3 -84 0 -119 -10z m-67 -151 c10 -25 7 -42
-10 -58 -8 -9 -11 -16 -5 -16 6 0 11 -11 11 -24 0 -14 5 -28 10 -31 15 -9 12
-35 -5 -35 -9 0 -12 -6 -9 -15 5 -11 -1 -15 -24 -15 -36 0 -62 24 -36 34 11 4
15 14 11 29 -3 12 -8 32 -10 44 -4 16 0 23 19 27 27 7 31 21 9 30 -8 3 -15 10
-15 16 0 6 5 8 10 5 6 -3 10 1 10 9 0 21 26 21 34 0z m900 -330 c3 -8 2 -12
-4 -9 -6 3 -10 10 -10 16 0 14 7 11 14 -7z m-1943 -117 c-10 -9 -11 -8 -5 6 3
10 9 15 12 12 3 -3 0 -11 -7 -18z m-97 -192 c-4 -8 -7 -15 -9 -15 -2 0 -5 7
-9 15 -3 9 0 15 9 15 9 0 12 -6 9 -15z m2280 -670 c-4 -8 -11 -15 -16 -15 -6
0 -5 6 2 15 7 8 14 15 16 15 2 0 1 -7 -2 -15z m-2244 -25 c0 -5 -5 -10 -11
-10 -5 0 -7 5 -4 10 3 6 8 10 11 10 2 0 4 -4 4 -10z m2286 -137 c10 -51 7
-105 -11 -183 -19 -84 -21 -94 -30 -165 -9 -75 -20 -103 -51 -136 -18 -19 -26
-40 -29 -73 -5 -65 -24 -103 -58 -117 -30 -13 -45 -33 -50 -70 -2 -13 -9 -25
-15 -27 -15 -5 -15 13 -1 41 7 11 13 39 14 61 6 88 29 136 42 87 3 -12 13 -19
24 -18 23 2 25 33 4 73 -8 16 -15 40 -15 55 0 14 -5 30 -12 37 -9 9 -9 15 -1
23 13 13 33 4 33 -17 0 -27 18 -14 46 33 26 45 27 53 27 173 -1 77 3 133 10
145 7 11 12 25 13 30 1 22 34 85 43 85 6 0 13 -17 17 -37z m-110 -274 c0 -48
-1 -50 -25 -47 -22 3 -26 7 -23 33 3 28 27 65 41 65 3 0 6 -23 7 -51z m-26
-94 c0 -8 -4 -15 -10 -15 -5 0 -10 7 -10 15 0 8 5 15 10 15 6 0 10 -7 10 -15z"/>
<path d="M3005 3109 c-4 -6 -4 -13 -1 -16 8 -8 36 5 36 17 0 13 -27 13 -35 -1z"/>
<path d="M4185 3101 c-6 -11 9 -23 19 -14 9 9 7 23 -3 23 -6 0 -12 -4 -16 -9z"/>
<path d="M4230 3090 c-9 -6 -10 -10 -3 -10 6 0 15 5 18 10 8 12 4 12 -15 0z"/>
<path d="M3472 3030 c2 -8 13 -15 23 -15 10 0 20 7 22 15 4 13 3 13 -5 1 -9
-13 -13 -13 -28 0 -15 12 -17 12 -12 -1z"/>
<path d="M4082 3019 c-18 -4 -42 -5 -52 -2 -10 3 -21 0 -24 -6 -4 -6 -15 -11
-25 -11 -10 0 -29 -9 -42 -20 l-23 -21 28 -23 29 -23 49 33 c65 44 102 74 97
77 -2 2 -19 0 -37 -4z"/>
<path d="M3560 3000 c0 -5 -7 -7 -15 -4 -8 4 -15 2 -15 -4 0 -9 60 -36 66 -29
2 2 1 13 -3 25 -5 21 -33 32 -33 12z"/>
<path d="M4545 3000 c-3 -5 -1 -10 4 -10 6 0 11 5 11 10 0 6 -2 10 -4 10 -3 0
-8 -4 -11 -10z"/>
<path d="M3284 2930 c-48 -10 -85 -26 -174 -75 -58 -32 -71 -36 -115 -30 l-50
5 35 -13 c29 -10 46 -10 95 1 43 10 93 12 181 8 131 -7 154 -4 154 25 0 25 20
24 27 -1 6 -22 43 -36 70 -26 15 6 12 11 -15 33 -25 19 -30 28 -22 38 25 31
-98 54 -186 35z"/>
<path d="M4102 2910 c-38 -9 -54 -20 -29 -20 24 0 21 -27 -4 -41 -12 -6 -17
-15 -13 -19 14 -13 64 1 75 21 13 25 25 24 32 -1 4 -17 14 -20 74 -20 37 -1
100 -5 138 -11 140 -20 195 -25 206 -18 14 8 -11 16 -59 18 -18 1 -63 15 -100
32 -131 59 -237 79 -320 59z"/>
<path d="M4550 2900 c-12 -8 -11 -10 7 -10 12 0 25 5 28 10 8 13 -15 13 -35 0z"/>
<path d="M4575 2840 c-8 -13 35 -13 55 0 11 7 7 10 -17 10 -17 0 -35 -4 -38
-10z"/>
<path d="M4195 2761 c-38 -6 -36 -7 35 -18 77 -11 146 -8 156 8 3 5 -24 9 -60
9 -35 0 -70 2 -78 4 -7 1 -31 0 -53 -3z"/>
<path d="M4145 2380 c-3 -5 -37 -10 -75 -10 -63 0 -136 -19 -190 -48 -35 -20
-112 -13 -169 15 -48 24 -69 28 -141 28 -47 0 -90 3 -97 8 -18 11 -23 -6 -10
-34 16 -31 75 -51 150 -50 63 1 117 -20 117 -44 0 -11 -11 -15 -39 -15 -22 0
-43 -5 -47 -11 -3 -6 -16 -8 -28 -5 -13 3 -31 -1 -42 -9 -10 -8 -31 -15 -47
-15 -32 0 -58 -14 -106 -53 -31 -27 -38 -28 -107 -24 -41 2 -74 1 -74 -2 0
-12 15 -26 45 -43 23 -13 30 -24 29 -45 -1 -32 11 -43 47 -43 15 0 43 -7 63
-15 31 -13 59 -14 202 -4 181 12 348 9 364 -7 21 -21 290 28 290 52 0 7 10 20
21 28 21 14 69 89 69 107 0 5 -5 9 -11 9 -5 0 -7 -4 -4 -10 3 -5 -3 -10 -15
-10 -19 0 -18 3 11 27 l32 27 17 -22 c10 -12 21 -22 24 -22 10 0 7 38 -4 45
-5 3 -10 15 -10 26 0 10 -4 19 -10 19 -5 0 -7 6 -5 13 6 17 -16 44 -36 44 -14
0 -15 -6 -8 -30 7 -25 4 -35 -19 -63 -26 -31 -60 -56 -46 -33 4 8 -3 9 -23 5
-23 -5 -45 1 -95 28 -36 19 -84 40 -107 46 -22 6 -41 14 -41 19 0 4 24 13 54
20 61 14 96 41 96 76 0 26 -15 41 -25 25z m-160 -160 c3 -5 1 -10 -5 -10 -6 0
-8 -4 -5 -10 3 -5 1 -10 -4 -10 -6 0 -11 9 -11 20 0 21 15 27 25 10z m-245
-35 c0 -9 6 -12 15 -9 10 4 15 0 15 -11 0 -10 -5 -15 -14 -12 -7 3 -19 0 -25
-6 -16 -16 -26 0 -12 17 7 8 10 20 6 26 -3 5 -1 10 4 10 6 0 11 -7 11 -15z
m172 -40 c9 4 32 0 50 -8 18 -8 60 -17 94 -20 33 -3 70 -11 82 -18 23 -14 46
-56 34 -62 -4 -3 -58 0 -121 6 -82 8 -128 8 -167 -1 -40 -8 -71 -8 -117 0 -46
8 -84 8 -147 -1 -128 -18 -199 -21 -206 -10 -9 15 -6 16 91 40 50 12 97 24
105 27 8 3 28 6 43 6 15 1 31 6 35 11 9 13 72 18 72 5 0 -18 33 -11 57 12 19
17 26 20 32 9 7 -10 9 -9 14 3 4 9 2 16 -3 16 -6 0 -10 8 -10 18 1 13 6 11 24
-11 14 -18 28 -26 38 -22z m-605 -51 c-3 -3 -12 -4 -19 -1 -8 3 -5 6 6 6 11 1
17 -2 13 -5z"/>
<path d="M2840 2372 c0 -6 -7 -9 -16 -5 -12 4 -15 1 -13 -12 6 -27 26 -29 32
-3 4 12 4 24 2 27 -3 2 -5 -1 -5 -7z"/>
<path d="M2820 2304 c0 -8 5 -12 10 -9 6 3 10 10 10 16 0 5 -4 9 -10 9 -5 0
-10 -7 -10 -16z"/>
<path d="M2850 2250 c0 -5 5 -10 10 -10 6 0 10 5 10 10 0 6 -4 10 -10 10 -5 0
-10 -4 -10 -10z"/>
<path d="M3200 2244 c0 -45 21 -90 49 -107 42 -25 46 -21 17 14 -14 17 -26 37
-26 46 0 8 -9 26 -20 40 -17 22 -20 23 -20 7z"/>
<path d="M4648 2203 c7 -3 16 -2 19 1 4 3 -2 6 -13 5 -11 0 -14 -3 -6 -6z"/>
<path d="M4600 2125 c-8 -9 -8 -15 -2 -15 12 0 26 19 19 26 -2 2 -10 -2 -17
-11z"/>
<path d="M4524 2080 c-1 -32 5 -37 24 -18 18 18 15 48 -5 48 -13 0 -18 -9 -19
-30z"/>
<path d="M2840 1935 c0 -8 4 -15 10 -15 5 0 7 7 4 15 -4 8 -8 15 -10 15 -2 0
-4 -7 -4 -15z"/>
<path d="M3170 1733 c0 -6 7 -19 16 -27 8 -9 12 -16 9 -16 -4 0 0 -11 9 -25 9
-13 16 -31 16 -38 0 -13 54 -77 66 -77 7 0 -3 17 -32 56 -13 17 -26 42 -29 56
-7 28 -54 89 -55 71z"/>
<path d="M4349 1732 c-26 -3 -49 -45 -49 -90 0 -24 -16 -38 -22 -20 -3 8 -10
4 -17 -11 -12 -21 -11 -23 3 -18 20 8 21 -12 1 -40 -24 -35 -2 -35 37 0 23 21
40 48 48 77 7 25 18 57 26 72 16 30 11 35 -27 30z"/>
<path d="M4515 1360 c-10 -31 -128 -146 -173 -169 -23 -12 -42 -25 -42 -29 0
-16 -103 -49 -162 -51 -10 -1 -18 -8 -18 -16 0 -17 -25 -20 -35 -5 -4 6 1 7
11 3 14 -5 15 -3 5 15 -11 21 -51 21 -51 0 0 -6 -11 -8 -24 -6 -17 4 -23 1
-19 -9 4 -9 0 -11 -11 -7 -17 7 -96 -23 -96 -36 0 -4 -13 -7 -30 -6 -21 1 -30
6 -30 17 0 9 -7 19 -15 23 -8 3 -12 12 -9 20 5 13 -6 15 -70 14 -42 0 -73 -4
-70 -9 8 -14 -4 -11 -31 7 -23 15 -25 15 -25 0 0 -23 -17 -20 -23 4 -3 11 -1
18 4 14 5 -3 9 -1 9 4 0 15 -42 22 -57 10 -7 -6 -27 -8 -44 -4 -20 4 -28 2
-23 -5 3 -6 20 -10 38 -9 48 3 50 1 32 -19 -18 -19 -66 -26 -66 -9 0 13 -52 0
-61 -14 -4 -7 -15 -3 -30 11 -12 11 -26 21 -31 21 -4 0 -36 21 -70 46 -67 49
-102 67 -131 66 -10 0 -15 4 -11 10 4 7 2 8 -4 4 -7 -4 -24 7 -41 26 -16 18
-33 30 -36 26 -14 -13 121 -136 222 -202 144 -94 244 -140 318 -144 85 -5 352
33 442 63 162 55 296 130 396 224 54 50 69 73 73 113 4 32 -2 37 -11 8z m-509
-293 c8 -7 -39 -27 -63 -27 -14 0 -14 2 0 18 17 18 50 23 63 9z"/>
<path d="M4070 1150 c0 -5 5 -10 11 -10 5 0 7 5 4 10 -3 6 -8 10 -11 10 -2 0
-4 -4 -4 -10z"/>
<path d="M3773 152 c22 -24 22 -72 0 -111 -20 -34 -40 -40 -50 -14 -4 10 -15
29 -25 42 -10 13 -16 32 -13 41 7 21 -22 35 -40 20 -20 -17 -24 -62 -10 -97
l14 -33 94 0 95 0 12 29 c9 23 9 38 0 65 -13 39 -24 50 -65 66 -28 11 -28 10
-12 -8z"/>
<path d="M3708 153 c6 -2 18 -2 25 0 6 3 1 5 -13 5 -14 0 -19 -2 -12 -5z"/>
</g>
</svg>
