<?xml version="1.0" standalone="no"?>
<!DOCTYPE svg PUBLIC "-//W3C//DTD SVG 20010904//EN"
 "http://www.w3.org/TR/2001/REC-SVG-20010904/DTD/svg10.dtd">
<svg version="1.0" xmlns="http://www.w3.org/2000/svg"
 width="168.000000pt" height="395.000000pt" viewBox="0 0 168.000000 395.000000"
 preserveAspectRatio="xMidYMid meet">

<g transform="translate(0.000000,395.000000) scale(0.100000,-0.100000)"
fill="#000000" stroke="none">
<path d="M627 3850 c-14 -11 -31 -20 -39 -20 -9 -1 -8 -4 3 -10 9 -5 20 -25
23 -45 10 -54 -26 -105 -37 -52 -4 15 -5 12 -4 -8 2 -24 6 -29 22 -27 11 2 40
7 65 11 25 4 51 10 58 14 8 6 12 2 12 -12 0 -31 47 -52 62 -28 6 9 8 8 8 -3 0
-13 1 -13 10 0 6 10 10 11 10 3 0 -20 20 -15 21 5 0 14 2 14 9 -3 6 -13 9 11
9 72 1 85 -12 132 -22 81 l-4 -23 -2 23 c0 13 -5 20 -11 17 -5 -3 -10 -1 -10
5 0 6 -4 9 -9 5 -5 -3 -12 -1 -15 3 -7 11 -56 3 -56 -9 0 -5 -4 -9 -10 -9 -5
0 -7 6 -5 13 9 21 -59 19 -88 -3z m51 -24 c-1 -14 -6 -22 -10 -20 -4 3 -8 -15
-8 -40 0 -35 -4 -46 -15 -46 -12 0 -15 9 -13 35 1 19 -3 40 -10 47 -9 9 -8 16
5 30 24 27 53 24 51 -6z m32 -36 c0 -22 1 -43 3 -47 1 -5 -9 -9 -23 -10 -14
-1 -18 0 -7 3 9 3 17 12 17 21 0 9 -6 13 -15 9 -8 -3 -15 -1 -15 4 0 6 7 10
16 10 12 0 15 7 12 25 -3 14 -1 25 3 25 5 0 9 -18 9 -40z m36 -27 c-2 -3 -9
-2 -14 1 -7 4 -6 17 1 37 l12 32 3 -33 c2 -17 1 -34 -2 -37z"/>
<path d="M635 3829 c-10 -15 3 -25 16 -12 7 7 7 13 1 17 -6 3 -14 1 -17 -5z"/>
<path d="M505 3839 c-4 -12 -2 -26 4 -32 8 -8 11 -2 11 21 0 37 -6 41 -15 11z"/>
<path d="M970 3850 c0 -5 7 -10 16 -10 8 0 12 5 9 10 -3 6 -10 10 -16 10 -5 0
-9 -4 -9 -10z"/>
<path d="M874 3755 c0 -55 1 -76 3 -47 2 29 2 74 0 100 -2 26 -3 2 -3 -53z"/>
<path d="M560 3786 c0 -2 6 -9 14 -15 10 -9 15 -8 20 4 4 10 -1 15 -14 15 -11
0 -20 -2 -20 -4z"/>
<path d="M490 3771 c0 -6 4 -13 10 -16 6 -3 7 1 4 9 -7 18 -14 21 -14 7z"/>
<path d="M610 3593 c-85 -5 -122 -13 -117 -26 3 -9 39 -11 132 -8 152 4 165
-13 17 -23 -69 -5 -107 -13 -126 -26 l-28 -18 31 -7 c29 -6 37 -22 17 -37 -14
-10 -16 -37 -4 -62 17 -39 61 -46 271 -46 192 0 196 0 212 23 13 19 17 20 25
7 8 -13 11 -13 24 0 11 11 14 26 9 53 -7 45 -27 44 -31 -1 -2 -18 -8 -32 -14
-32 -6 0 -8 9 -5 20 3 11 -1 27 -9 34 -23 24 -16 36 21 36 34 0 46 12 25 25
-6 4 -8 10 -5 15 6 10 -29 19 -80 21 -22 0 -51 5 -65 9 l-25 8 25 2 c14 1 29
2 34 1 6 -1 32 1 58 4 40 6 47 9 37 21 -9 11 -48 14 -193 12 -99 -1 -206 -3
-236 -5z m23 -130 c-7 -2 -21 -2 -30 0 -10 3 -4 5 12 5 17 0 24 -2 18 -5z"/>
<path d="M1070 3580 c0 -5 6 -10 14 -10 8 0 18 5 21 10 3 6 -3 10 -14 10 -12
0 -21 -4 -21 -10z"/>
<path d="M722 3280 c-12 -5 -25 -15 -27 -23 -7 -16 -45 -20 -45 -5 0 15 -36
-19 -38 -35 0 -6 -7 -30 -15 -52 -8 -22 -12 -42 -8 -45 4 -3 7 -40 8 -83 1
-43 4 -81 8 -85 9 -9 36 28 29 39 -3 5 -3 9 1 9 3 0 9 -10 14 -22 6 -17 1 -27
-24 -49 -42 -37 -58 -91 -53 -172 2 -44 0 -64 -7 -60 -5 4 -2 -3 8 -14 11 -13
17 -37 17 -74 1 -75 28 -131 82 -165 55 -36 55 -36 40 -41 -16 -6 -42 -32 -42
-43 0 -12 118 -11 125 1 9 14 25 11 25 -4 0 -8 11 -19 25 -25 14 -6 33 -25 43
-42 l19 -30 11 39 c17 54 15 68 -10 86 -23 16 -23 16 -3 27 31 18 95 91 99
113 22 117 26 146 26 173 0 18 -4 32 -10 32 -5 0 -10 26 -10 57 0 31 -5 72
-12 90 -11 30 -10 35 10 49 15 10 21 22 17 34 -3 10 -1 21 5 25 12 8 30 -36
30 -75 0 -34 15 -47 36 -29 11 9 13 27 10 73 -5 71 -23 127 -35 108 -4 -8 -8
1 -8 20 -1 57 -18 133 -30 133 -6 0 -15 4 -20 9 -5 5 -3 6 5 2 7 -4 12 -1 12
8 0 9 -8 13 -24 12 -14 -2 -27 3 -30 10 -3 8 -14 14 -25 14 -11 0 -23 5 -26
10 -8 12 -172 12 -203 0z m108 -393 c35 -17 46 -29 51 -54 3 -18 12 -40 19
-48 10 -12 9 -16 -6 -21 -11 -3 -35 -14 -54 -23 -35 -16 -35 -17 -27 -61 15
-89 16 -85 -28 -83 l-40 3 35 -14 c19 -8 49 -17 65 -21 27 -7 28 -8 10 -15
-11 -5 -48 -9 -81 -9 -74 -1 -98 17 -69 49 10 11 22 17 26 14 5 -3 9 0 9 7 0
6 8 9 20 6 11 -3 20 -1 20 4 0 26 -87 -8 -108 -42 -11 -18 -11 -24 4 -40 9
-10 21 -16 26 -13 5 3 20 -2 34 -11 14 -9 33 -14 42 -10 14 5 14 7 2 15 -11 7
-2 10 30 10 31 0 41 -3 30 -9 -8 -6 -19 -7 -25 -5 -5 3 -1 -2 9 -10 19 -15 19
-16 -7 -16 -15 0 -27 -5 -27 -11 0 -6 12 -10 28 -9 48 3 62 0 62 -14 0 -17
-22 -36 -49 -41 -12 -2 -25 -7 -31 -10 -8 -5 -45 12 -110 50 -33 20 -51 38
-66 68 -18 34 -9 51 12 23 14 -19 14 -19 14 4 0 13 -7 32 -17 42 -12 13 -17
44 -21 117 -4 90 -2 101 19 134 21 32 41 43 71 38 4 0 19 6 35 14 36 19 40 19
93 -8z m90 -157 c0 -5 -12 -10 -27 -10 -22 0 -25 2 -13 10 20 13 40 13 40 0z
m-35 -40 c-18 -7 -19 -8 -2 -15 10 -4 27 -1 42 9 l25 16 0 -55 c0 -32 -4 -54
-9 -50 -5 3 -12 1 -16 -5 -11 -17 -28 -11 -23 8 3 12 -2 24 -14 31 -11 7 -17
17 -15 24 2 7 -2 19 -9 27 -11 14 -10 16 14 17 23 1 24 1 7 -7z m-20 -69 c3
-5 1 -12 -5 -16 -5 -3 -10 1 -10 9 0 18 6 21 15 7z m80 -100 c-17 -33 -35 -41
-35 -15 0 21 44 75 48 58 2 -7 -4 -26 -13 -43z m36 -4 c-10 -9 -11 -8 -5 6 3
10 9 15 12 12 3 -3 0 -11 -7 -18z"/>
<path d="M675 2760 c-12 -4 -27 -15 -35 -25 -12 -14 -12 -18 1 -26 8 -5 23 -9
34 -10 11 0 29 -5 40 -10 15 -7 12 -8 -15 -4 -32 4 -33 3 -16 -10 21 -16 44
-8 84 28 l23 21 -43 23 c-49 25 -46 25 -73 13z m29 -16 c27 -10 18 -22 -19
-26 -40 -5 -40 -5 -19 16 18 18 17 18 38 10z"/>
<path d="M770 2679 c0 -5 5 -7 10 -4 6 3 10 8 10 11 0 2 -4 4 -10 4 -5 0 -10
-5 -10 -11z"/>
<path d="M514 2943 c-11 -41 -11 -47 3 -61 17 -18 29 -9 36 28 12 57 -23 87
-39 33z"/>
<path d="M565 2649 c-4 -6 -5 -12 -2 -15 2 -3 7 2 10 11 7 17 1 20 -8 4z"/>
<path d="M1068 2496 c-85 -27 -106 -45 -90 -81 18 -38 15 -57 -14 -84 -14 -13
-28 -37 -31 -53 -7 -34 -34 -38 -48 -6 -16 34 -58 60 -108 65 -62 7 -171 -27
-231 -72 -44 -34 -49 -36 -82 -25 -94 31 -174 -30 -174 -134 0 -47 23 -76 62
-76 16 0 16 -4 -4 -52 -25 -64 -43 -127 -52 -189 -5 -36 -3 -50 11 -68 18 -22
18 -22 118 -6 163 26 334 45 425 48 99 3 153 23 177 65 14 24 26 30 80 39 35
6 71 17 80 25 9 7 26 11 39 10 36 -5 131 26 138 44 3 9 6 39 5 67 l-1 52 -11
-39 c-13 -41 -18 -44 -94 -59 -31 -6 -32 -6 -22 20 5 14 13 68 16 120 5 84 4
93 -11 93 -14 0 -17 -7 -14 -32 3 -32 2 -33 -38 -36 l-41 -3 5 -93 c5 -105 12
-97 -90 -111 l-48 -7 0 31 c0 26 -4 31 -25 31 -29 0 -30 -2 -9 -42 9 -17 13
-40 9 -55 -12 -49 -144 -81 -210 -51 -19 8 -28 9 -33 1 -6 -9 -172 -36 -179
-29 -2 1 8 40 21 87 22 77 30 121 27 158 -1 11 -4 11 -16 1 -20 -17 -50 -85
-76 -173 -11 -40 -26 -77 -32 -83 -7 -7 -47 -16 -89 -21 l-78 -9 0 43 c0 61
44 173 103 264 l16 24 -55 -3 c-33 -3 -60 1 -69 8 -23 19 -18 55 11 89 22 26
33 31 70 31 50 0 98 -21 108 -45 3 -9 6 -51 6 -93 l0 -76 50 49 c27 27 50 52
50 56 0 4 -11 10 -25 13 -30 8 -65 40 -65 60 0 24 62 78 118 103 110 48 209
23 200 -52 -4 -31 -2 -32 20 -24 13 5 41 9 62 9 59 0 74 -28 65 -125 -7 -72
-6 -75 14 -75 20 0 21 5 21 80 0 89 2 92 78 105 38 6 42 5 42 -14 0 -18 5 -16
33 15 40 44 114 62 142 35 15 -15 16 -15 10 0 -7 18 -46 39 -74 39 -14 0 -20
10 -24 47 -4 34 -12 53 -30 69 -17 15 -27 34 -29 59 -5 58 -28 67 -110 41z
m72 -45 c0 -37 -1 -39 -44 -50 -59 -15 -56 -16 -56 23 0 33 3 36 48 49 26 8
48 15 50 16 1 1 2 -16 2 -38z m48 -73 c15 -15 15 -60 0 -93 -27 -59 -156 -87
-199 -44 -36 36 -8 83 74 124 55 27 106 32 125 13z m24 -333 c-2 -14 -6 -25
-8 -25 -2 0 -4 11 -4 25 0 14 4 25 9 25 4 0 6 -11 3 -25z"/>
<path d="M1072 2314 c-26 -18 -29 -39 -6 -48 24 -9 54 12 54 39 0 29 -16 32
-48 9z"/>
<path d="M385 2359 c-4 -6 -2 -16 4 -22 15 -15 14 -30 -1 -21 -7 4 -8 3 -4 -5
4 -6 12 -9 17 -6 13 9 11 35 -3 35 -10 0 -9 3 1 9 8 5 9 11 3 15 -6 3 -14 1
-17 -5z"/>
<path d="M425 2360 c-3 -5 -1 -10 4 -10 6 0 11 -9 11 -20 0 -11 5 -20 10 -20
6 0 10 14 10 30 0 30 -21 42 -35 20z"/>
<path d="M347 2353 c-4 -3 -7 -20 -6 -37 0 -17 3 -25 6 -18 2 6 9 10 14 6 5
-3 9 9 9 25 0 30 -9 39 -23 24z"/>
<path d="M646 2229 c-32 -25 -33 -36 -1 -51 44 -20 112 26 90 62 -11 17 -61
11 -89 -11z"/>
<path d="M860 2177 c-29 -15 -38 -52 -15 -60 8 -4 27 -1 41 5 18 9 24 18 22
37 -4 30 -15 35 -48 18z"/>
<path d="M372 2168 c-22 -22 -14 -40 16 -36 33 4 47 48 15 48 -11 0 -24 -5
-31 -12z"/>
<path d="M1351 2124 c0 -11 3 -14 6 -6 3 7 2 16 -1 19 -3 4 -6 -2 -5 -13z"/>
<path d="M730 2126 c0 -2 7 -6 15 -10 8 -3 15 -1 15 4 0 6 -7 10 -15 10 -8 0
-15 -2 -15 -4z"/>
<path d="M771 2047 c-2 -47 -1 -50 12 -33 11 15 26 19 75 18 61 -1 62 -1 62
27 0 27 0 27 -60 23 -35 -3 -65 0 -73 7 -11 8 -14 0 -16 -42z"/>
<path d="M824 1947 c-36 -31 -27 -57 19 -57 38 0 67 25 67 58 0 31 -50 30 -86
-1z"/>
<path d="M762 1920 c0 -14 2 -19 5 -12 2 6 2 18 0 25 -3 6 -5 1 -5 -13z"/>
<path d="M1273 1887 c-13 -5 -23 -18 -23 -28 0 -12 -5 -16 -15 -13 -8 4 -15 1
-15 -6 0 -6 -4 -9 -9 -5 -6 3 -16 -1 -23 -8 -9 -10 -21 -12 -43 -6 -19 6 -40
5 -58 -2 -27 -11 -27 -13 -25 -85 l3 -74 40 0 c22 0 52 6 66 14 14 7 40 11 57
8 21 -3 42 2 59 14 15 9 43 18 62 18 40 1 67 32 50 56 -9 13 -10 12 -5 -2 3
-10 1 -18 -4 -18 -6 0 -10 19 -11 43 -1 36 -2 38 -9 17 l-8 -25 -1 28 c-1 16
4 38 11 50 10 20 10 21 -5 8 -11 -9 -17 -10 -17 -2 0 6 -4 11 -8 11 -11 0 9
-103 23 -113 6 -5 4 -7 -5 -5 -9 3 -19 24 -24 51 -12 58 -24 60 -29 5 -2 -24
-3 -17 -2 14 2 32 0 60 -3 62 -4 2 -17 -1 -29 -7z m-153 -102 c0 -19 -2 -35
-4 -35 -2 0 -6 16 -8 35 -2 19 0 35 4 35 4 0 8 -16 8 -35z m37 -32 c-3 -10 -5
-2 -5 17 0 19 2 27 5 18 2 -10 2 -26 0 -35z m130 0 c-3 -10 -5 -2 -5 17 0 19
2 27 5 18 2 -10 2 -26 0 -35z m-40 -10 c-3 -10 -5 -2 -5 17 0 19 2 27 5 18 2
-10 2 -26 0 -35z m-70 -40 c-3 -10 -5 -4 -5 12 0 17 2 24 5 18 2 -7 2 -21 0
-30z"/>
<path d="M1471 1786 c-14 -17 -3 -99 11 -90 6 4 7 -2 3 -15 -10 -32 15 -235
28 -222 6 6 6 42 -2 103 -9 78 -16 141 -23 226 -2 15 -3 15 -17 -2z"/>
<path d="M1345 1605 c-16 -8 -56 -22 -88 -31 -35 -10 -53 -20 -46 -24 15 -10
5 -12 -129 -40 -152 -30 -714 -121 -726 -117 -6 2 96 21 226 42 131 21 236 41
233 43 -6 6 -149 -15 -342 -49 -90 -16 -166 -29 -170 -30 -5 -1 3 -4 17 -8 21
-6 15 -9 -39 -21 -89 -20 -121 -42 -121 -82 0 -47 -14 -24 -21 35 -5 44 -6 38
-8 -40 -1 -60 3 -94 11 -99 7 -5 9 0 6 14 -4 15 -2 19 8 15 18 -7 18 -22 -2
-44 -14 -16 -15 -26 -3 -88 6 -39 16 -68 20 -65 9 5 59 -43 59 -57 0 -5 15 -9
33 -9 27 0 32 4 33 25 3 51 9 56 50 39 45 -19 54 -11 32 27 -9 16 -13 29 -7
29 6 0 8 4 5 9 -4 5 -2 21 4 35 9 24 7 26 -18 26 -18 0 -23 -3 -14 -9 15 -9
13 -42 -3 -53 -16 -12 -40 -9 -61 7 -16 13 -17 16 -4 25 12 8 10 10 -10 11
-49 2 51 25 236 54 l182 29 -19 33 c-12 21 -19 53 -19 84 0 31 -4 48 -10 44
-5 -3 -10 -26 -10 -50 0 -24 -4 -47 -10 -50 -6 -4 -10 8 -10 30 0 22 -4 34
-10 30 -18 -11 -12 -73 8 -78 13 -3 12 -4 -3 -3 -16 1 -21 9 -23 39 -3 33 -6
38 -25 35 -14 -2 -21 -10 -21 -21 1 -9 -2 -17 -7 -17 -5 0 -6 -8 -3 -17 5 -14
4 -15 -4 -4 -5 7 -16 18 -23 23 -11 8 -10 9 4 4 11 -3 17 0 17 10 0 24 -35 12
-38 -14 -2 -12 1 -22 7 -22 6 0 11 -4 11 -10 0 -5 -7 -7 -15 -4 -8 4 -15 1
-15 -5 0 -6 10 -11 23 -12 15 -1 11 -4 -13 -9 -37 -9 -50 -6 -50 13 0 7 4 6
10 -3 5 -8 12 -12 15 -8 8 8 10 67 2 74 -9 9 -37 -3 -37 -16 0 -6 5 -8 10 -5
6 3 10 1 10 -4 0 -17 -21 -13 -35 6 -13 17 -45 12 -45 -8 0 -8 4 -8 15 1 8 7
15 8 15 4 0 -5 -9 -15 -20 -22 -23 -14 -27 -42 -5 -42 9 0 12 6 9 15 -4 8 -1
15 6 15 20 0 6 -35 -15 -36 -11 -1 -28 -4 -37 -8 -9 -4 -21 -5 -27 -2 -5 4
-12 2 -16 -4 -10 -17 -25 -1 -25 26 0 14 -4 22 -10 19 -5 -3 -11 4 -11 17 -1
16 -4 12 -9 -12 l-7 -35 -2 33 c0 19 -5 31 -11 27 -5 -3 -10 -1 -10 4 0 6 5
11 10 11 6 0 10 5 10 11 0 7 8 18 18 26 16 13 15 14 -6 10 -12 -3 -22 -1 -22
4 0 8 10 10 38 9 4 -1 6 -13 4 -29 -2 -24 0 -27 20 -25 13 1 29 3 36 3 6 1 12
7 12 15 0 19 27 28 34 11 3 -9 0 -12 -10 -8 -11 4 -14 -5 -14 -40 0 -57 -17
-71 -23 -20 l-4 38 -1 -43 c-2 -36 1 -43 15 -40 11 2 20 18 26 46 6 32 14 43
32 48 13 3 28 3 34 0 5 -4 13 -2 16 4 4 6 16 10 28 8 16 -2 23 3 25 18 3 20
39 40 51 28 3 -3 -5 -7 -17 -11 -12 -3 -22 -9 -22 -13 0 -11 39 -20 45 -10 2
4 22 10 42 13 23 4 43 15 51 27 14 24 32 26 32 5 0 -8 5 -15 10 -15 6 0 5 -8
-2 -20 -11 -16 -9 -22 7 -36 17 -13 17 -15 3 -10 -12 3 -18 0 -18 -9 0 -20 24
-19 41 1 11 14 11 18 -4 29 -22 16 -22 26 0 18 13 -5 15 -2 10 12 -6 14 -5 16
7 6 11 -9 15 -7 19 9 3 13 14 21 34 22 15 1 37 2 48 3 11 1 33 7 48 13 16 7
33 12 38 12 13 0 11 -17 -3 -26 -7 -4 -8 -3 -4 4 12 19 -10 14 -35 -9 -21 -18
-22 -20 -4 -14 18 6 18 4 -3 -16 -22 -20 -25 -20 -40 -5 -10 10 -12 16 -7 14
6 -2 11 2 13 7 1 6 -6 10 -15 10 -11 0 -19 -9 -21 -22 -2 -13 1 -23 7 -23 6 0
11 -5 11 -11 0 -5 -4 -7 -10 -4 -5 3 -10 0 -10 -8 0 -8 -6 -17 -14 -20 -11 -4
-12 2 -4 35 5 22 7 43 4 45 -9 10 -25 -8 -19 -22 3 -9 -1 -15 -11 -15 -19 0
-21 -30 -4 -50 11 -12 10 -12 -4 -1 -10 7 -18 12 -19 10 -5 -27 -2 -69 6 -69
6 0 85 13 175 29 289 51 467 97 526 136 24 15 32 49 15 59 -5 3 -7 27 -5 53 2
27 2 43 -2 36 -3 -7 -11 -10 -18 -7 -10 4 -11 -5 -6 -40 4 -25 3 -43 -2 -40
-4 3 -8 21 -8 40 0 19 -5 34 -11 34 -7 0 -10 -17 -7 -45 2 -25 0 -45 -4 -45
-5 0 -9 19 -10 43 l-1 42 -7 -50 -7 -50 -1 43 c-2 36 -5 43 -19 40 -10 -2 -21
-16 -24 -33 l-7 -30 -1 30 c-1 28 4 33 59 57 57 25 60 28 60 62 l0 35 -46 -19
c-25 -11 -51 -20 -57 -19 -7 0 7 8 30 17 41 17 65 33 47 31 -5 0 -22 -7 -39
-14z m-65 -45 c-8 -5 -22 -9 -30 -9 -10 0 -8 3 5 9 27 12 43 12 25 0z m13 -17
c-7 -2 -13 -12 -13 -20 0 -9 -3 -14 -6 -10 -10 10 4 37 18 36 10 0 10 -2 1 -6z
m-17 -72 c-4 -5 -13 -8 -20 -5 -17 7 -28 -67 -12 -78 6 -5 7 -8 1 -8 -5 0 -20
-3 -32 -6 -14 -4 -23 -2 -23 5 0 5 7 8 15 5 10 -4 15 0 16 12 0 11 2 29 3 42
3 22 -8 30 -19 12 -3 -5 -12 -7 -20 -4 -10 4 -15 -4 -18 -28 l-4 -33 1 34 c1
31 4 35 45 47 25 7 49 10 55 7 6 -4 7 1 2 13 -5 14 -4 16 5 7 6 -6 8 -16 5
-22z m141 -3 c-3 -7 -5 -2 -5 12 0 14 2 19 5 13 2 -7 2 -19 0 -25z m-289 -75
l-1 -48 -4 43 c-4 40 -18 53 -37 35 -4 -5 -17 -8 -28 -8 -11 0 -26 -8 -32 -17
-8 -14 -6 -21 9 -34 17 -13 17 -15 3 -10 -12 3 -18 0 -18 -10 0 -8 -4 -13 -8
-10 -5 3 -7 19 -4 36 4 26 1 30 -20 30 -33 0 -48 -18 -49 -59 -1 -26 -3 -29
-6 -12 -3 12 -2 33 1 45 6 24 51 50 67 40 6 -3 16 0 24 6 8 7 21 10 30 7 8 -4
17 -2 20 3 4 6 17 10 31 10 22 0 24 -3 22 -47z m142 32 c0 -8 -4 -15 -10 -15
-5 0 -7 7 -4 15 4 8 8 15 10 15 2 0 4 -7 4 -15z m-60 -15 c0 -5 -2 -10 -4 -10
-3 0 -8 5 -11 10 -3 6 -1 10 4 10 6 0 11 -4 11 -10z m-109 -32 c-4 -28 -6 -29
-9 -10 -3 17 -8 22 -20 18 -13 -5 -12 -2 2 9 29 22 33 19 27 -17z m-114 -4
c-3 -3 -12 -4 -19 -1 -8 3 -5 6 6 6 11 1 17 -2 13 -5z m-3 -41 c4 -10 4 -14 0
-10 -4 4 -14 1 -22 -6 -13 -11 -14 -9 -1 11 17 26 15 26 23 5z m-114 -13 c0
-5 -5 -10 -11 -10 -5 0 -7 5 -4 10 3 6 8 10 11 10 2 0 4 -4 4 -10z m0 -25 c0
-2 -13 -5 -29 -7 -19 -3 -27 0 -24 7 3 10 53 9 53 0z m-313 -47 c-2 -13 -4 -5
-4 17 -1 22 1 32 4 23 2 -10 2 -28 0 -40z m-150 -30 c-3 -8 -6 -5 -6 6 -1 11
2 17 5 13 3 -3 4 -12 1 -19z m-182 -36 c-3 -3 -11 0 -18 7 -9 10 -8 11 6 5 10
-3 15 -9 12 -12z m14 -66 c-2 -2 -15 -9 -29 -15 -24 -11 -24 -11 -6 3 16 13
49 24 35 12z m-12 -112 c-3 -3 -12 -4 -19 -1 -8 3 -5 6 6 6 11 1 17 -2 13 -5z"/>
<path d="M1128 1533 c7 -3 16 -2 19 1 4 3 -2 6 -13 5 -11 0 -14 -3 -6 -6z"/>
<path d="M1443 1505 c0 -22 2 -30 4 -17 2 12 2 30 0 40 -3 9 -5 -1 -4 -23z"/>
<path d="M1018 1513 c6 -2 18 -2 25 0 6 3 1 5 -13 5 -14 0 -19 -2 -12 -5z"/>
<path d="M968 1503 c7 -3 16 -2 19 1 4 3 -2 6 -13 5 -11 0 -14 -3 -6 -6z"/>
<path d="M860 1490 c-34 -7 -34 -7 -5 -8 17 0 44 4 60 8 27 7 27 8 5 8 -14 -1
-41 -4 -60 -8z"/>
<path d="M198 1369 c-14 -6 -29 -17 -32 -26 -5 -12 -3 -13 7 -5 7 6 29 18 48
26 38 17 20 20 -23 5z"/>
<path d="M1362 1340 c-36 -17 -229 -68 -372 -99 l-45 -10 55 5 55 6 30 -76
c17 -42 36 -78 44 -81 22 -9 22 -1 1 36 -20 33 -60 117 -60 124 0 2 15 6 33
10 96 18 209 51 262 76 33 15 56 27 50 27 -5 1 -29 -8 -53 -18z"/>
<path d="M250 1259 c0 -5 5 -7 10 -4 6 4 10 -8 10 -30 0 -20 4 -34 8 -31 14 8
1 76 -14 76 -8 0 -14 -5 -14 -11z"/>
<path d="M680 1235 c0 -8 5 -15 10 -15 6 0 10 7 10 15 0 8 -4 15 -10 15 -5 0
-10 -7 -10 -15z"/>
<path d="M860 1220 c-17 -6 -9 -7 25 -3 28 3 52 7 54 9 8 7 -54 2 -79 -6z"/>
<path d="M1361 1179 c-6 -29 -9 -54 -7 -56 5 -5 12 18 21 70 9 55 -2 45 -14
-14z"/>
<path d="M778 1203 c6 -2 18 -2 25 0 6 3 1 5 -13 5 -14 0 -19 -2 -12 -5z"/>
<path d="M728 1193 c7 -3 16 -2 19 1 4 3 -2 6 -13 5 -11 0 -14 -3 -6 -6z"/>
<path d="M610 1180 c-19 -4 -29 -8 -22 -9 7 0 10 -6 6 -12 -4 -7 3 -6 17 2 13
7 38 16 54 20 26 6 27 7 5 7 -14 -1 -41 -4 -60 -8z"/>
<path d="M523 1163 c9 -2 23 -2 30 0 6 3 -1 5 -18 5 -16 0 -22 -2 -12 -5z"/>
<path d="M770 1160 c0 -5 6 -10 13 -10 6 0 29 -3 50 -6 30 -5 37 -4 37 10 0
13 -10 16 -50 16 -27 0 -50 -4 -50 -10z"/>
<path d="M463 1153 c9 -2 23 -2 30 0 6 3 -1 5 -18 5 -16 0 -22 -2 -12 -5z"/>
<path d="M400 1135 c0 -8 4 -15 9 -15 5 0 14 7 21 15 10 13 9 15 -9 15 -12 0
-21 -6 -21 -15z"/>
<path d="M315 1110 c10 -11 19 -20 21 -20 1 0 0 9 -3 20 -3 11 -12 20 -21 20
-13 0 -12 -3 3 -20z"/>
<path d="M1319 1083 c-6 -16 -13 -43 -16 -60 -3 -18 -10 -30 -15 -27 -5 3 -7
13 -4 21 3 8 2 12 -3 9 -5 -3 -14 1 -21 8 -6 8 -26 18 -43 22 -18 3 -35 11
-38 16 -4 7 -13 7 -25 -1 -11 -6 -14 -11 -8 -11 6 0 16 -11 22 -25 6 -13 17
-22 24 -20 17 6 32 -5 47 -32 12 -24 45 -31 56 -13 8 13 35 -6 35 -24 0 -6 8
-19 19 -28 18 -15 19 -14 25 30 8 56 8 110 0 140 -9 32 -42 28 -55 -5z"/>
<path d="M810 1085 c0 -9 12 -18 30 -21 17 -4 30 -12 30 -19 0 -7 11 -15 25
-17 17 -4 25 -1 25 8 0 8 -5 14 -11 14 -6 0 -18 9 -27 19 -23 26 -72 37 -72
16z"/>
<path d="M608 1062 c-19 -11 -26 -22 -22 -34 4 -13 0 -18 -15 -18 -16 0 -21
-9 -27 -45 -3 -25 -3 -52 0 -61 4 -10 1 -14 -6 -12 -7 3 -16 19 -20 36 -9 35
-25 42 -35 16 -5 -14 -11 -11 -35 16 -29 34 -47 36 -30 3 5 -10 12 -31 16 -48
6 -24 5 -28 -5 -17 -7 6 -19 12 -27 12 -12 0 -12 -3 -2 -15 15 -18 51 -20 69
-2 11 10 14 10 18 0 3 -7 11 -13 19 -13 8 0 14 -9 14 -20 0 -11 5 -20 10 -20
6 0 10 -5 10 -11 0 -5 -4 -7 -10 -4 -6 4 -10 -12 -10 -39 0 -44 1 -46 29 -46
16 0 46 8 67 17 l39 16 -38 12 -39 11 26 12 c28 13 33 27 13 39 -17 11 -50 63
-43 70 8 8 76 -7 76 -17 0 -4 -5 -10 -11 -12 -11 -4 63 -58 78 -58 17 1 63 49
59 62 -15 49 -16 50 -30 38 -22 -17 -62 5 -46 26 7 7 16 11 21 8 5 -3 6 2 3
10 -7 19 -33 21 -40 3 -8 -21 -70 -16 -84 6 -11 18 -10 19 14 13 38 -9 86 17
79 44 -3 12 0 20 6 20 7 0 9 5 6 10 -10 16 -67 11 -97 -8z m72 -2 c0 -5 -4
-10 -9 -10 -6 0 -13 5 -16 10 -3 6 1 10 9 10 9 0 16 -4 16 -10z"/>
<path d="M551 1053 c7 -12 15 -20 18 -17 3 2 -3 12 -13 22 -17 16 -18 16 -5
-5z"/>
<path d="M1260 1061 c0 -6 4 -13 10 -16 6 -3 7 1 4 9 -7 18 -14 21 -14 7z"/>
<path d="M725 1010 c-10 -17 12 -37 25 -24 8 8 6 15 -4 23 -10 9 -16 9 -21 1z"/>
<path d="M900 937 c1 -19 38 -63 47 -54 4 5 2 12 -6 16 -7 5 -12 11 -12 15 3
18 0 24 -14 30 -8 3 -15 0 -15 -7z"/>
<path d="M831 931 c-7 -5 -22 -6 -32 -4 -14 4 -19 0 -19 -13 0 -13 3 -15 8 -7
4 7 17 10 30 6 17 -4 21 -11 17 -24 -4 -11 -2 -19 4 -19 6 0 11 16 11 35 0 39
0 38 -19 26z"/>
<path d="M1312 898 c3 -7 12 -14 21 -16 12 -2 15 1 11 12 -7 19 -38 22 -32 4z"/>
<path d="M1030 870 c20 -13 33 -13 25 0 -3 6 -14 10 -23 10 -15 0 -15 -2 -2
-10z"/>
<path d="M852 837 c-62 -23 -68 -40 -12 -31 68 11 76 0 30 -46 -22 -22 -40
-45 -40 -52 0 -7 22 11 50 40 86 90 74 128 -28 89z"/>
<path d="M280 840 c0 -5 5 -10 11 -10 5 0 7 5 4 10 -3 6 -8 10 -11 10 -2 0 -4
-4 -4 -10z"/>
<path d="M433 826 c-9 -11 -7 -16 10 -24 l22 -11 -23 0 c-12 -1 -25 -8 -29
-16 -7 -19 5 -34 15 -19 4 6 17 16 30 23 16 8 22 20 20 34 -4 25 -28 32 -45
13z"/>
<path d="M975 818 c-4 -13 -17 -39 -28 -58 -12 -19 -20 -45 -19 -57 2 -16 -2
-23 -12 -23 -9 0 -16 5 -16 12 0 6 -14 -1 -30 -17 -30 -29 -30 -29 -29 -132 2
-90 5 -105 21 -114 16 -8 19 -5 24 21 9 43 24 37 24 -10 0 -22 1 -40 3 -40 7
0 114 43 138 56 24 12 27 18 19 38 -5 13 -6 27 -3 30 3 3 -9 20 -27 38 -31 29
-32 32 -14 39 33 13 52 10 57 -11 3 -13 10 -18 21 -14 20 8 21 40 2 51 -8 4
-15 13 -16 18 -5 46 -13 55 -49 56 -20 1 -40 1 -44 0 -5 -1 -7 4 -4 11 2 7 0
21 -5 31 -7 14 -5 24 10 40 17 19 19 25 8 40 -17 23 -23 22 -31 -5z m-5 -153
c-7 -9 -15 -13 -18 -10 -3 2 1 11 8 20 7 9 15 13 18 10 3 -2 -1 -11 -8 -20z
m-24 -77 c-8 -49 -13 -58 -30 -58 -9 0 -12 9 -8 28 5 24 4 26 -11 13 -26 -21
-20 1 8 32 37 39 49 35 41 -15z m84 -108 c0 -5 -4 -10 -10 -10 -5 0 -10 5 -10
10 0 6 5 10 10 10 6 0 10 -4 10 -10z"/>
<path d="M640 810 c0 -5 5 -10 10 -10 6 0 10 5 10 10 0 6 -4 10 -10 10 -5 0
-10 -4 -10 -10z"/>
<path d="M1396 769 c-19 -19 -19 -19 5 -19 14 0 30 -5 37 -12 9 -9 12 -8 12 8
0 19 -18 45 -29 43 -4 0 -15 -9 -25 -20z"/>
<path d="M1207 759 c7 -7 15 -10 18 -7 3 3 -2 9 -12 12 -14 6 -15 5 -6 -5z"/>
<path d="M310 740 c0 -19 3 -21 12 -12 9 9 9 15 0 24 -9 9 -12 7 -12 -12z"/>
<path d="M346 731 c-26 -41 -40 -131 -36 -231 2 -43 4 -50 10 -30 7 23 8 23 9
3 1 -12 4 -30 7 -40 5 -15 4 -15 -5 -3 -9 12 -11 9 -11 -16 0 -32 28 -54 61
-47 18 4 32 53 23 78 -4 8 -1 22 6 29 9 11 6 31 -12 88 l-23 73 -5 -110 c-4
-85 -7 -102 -13 -75 -14 64 -19 194 -9 240 11 44 10 61 -2 41z m42 -339 c6
-18 -15 -14 -22 4 -4 10 -1 14 6 12 6 -2 14 -10 16 -16z"/>
<path d="M700 730 c0 -5 4 -10 9 -10 6 0 13 5 16 10 3 6 -1 10 -9 10 -9 0 -16
-4 -16 -10z"/>
<path d="M410 678 c0 -47 21 -153 33 -164 2 -3 11 -2 19 1 11 4 14 28 15 103
1 67 -1 90 -7 75 -5 -13 -16 -23 -24 -23 -12 0 -14 7 -9 30 4 23 2 30 -11 30
-13 0 -16 -11 -16 -52z"/>
<path d="M1404 675 c-6 -11 -17 -36 -23 -56 -11 -33 -40 -50 -42 -25 0 6 -5
-2 -9 -18 -12 -37 5 -73 25 -56 8 7 17 20 20 30 4 11 12 17 20 14 18 -7 27 28
23 87 -3 38 -4 41 -14 24z"/>
<path d="M537 648 c-9 -18 -13 -36 -10 -41 9 -15 48 20 51 47 5 37 -22 34 -41
-6z"/>
<path d="M746 662 c-3 -6 -1 -14 5 -17 15 -10 25 3 12 16 -7 7 -13 7 -17 1z"/>
<path d="M634 618 c-40 -45 -60 -123 -29 -112 8 4 15 13 15 21 0 8 5 11 10 8
6 -4 8 -10 6 -14 -3 -4 -8 -22 -11 -39 -4 -27 -2 -32 15 -32 31 0 24 -18 -13
-36 -32 -15 -77 -78 -65 -90 4 -3 39 -8 80 -11 54 -4 83 -1 111 10 39 17 51
47 17 47 -11 0 -20 5 -20 11 0 7 10 9 25 5 22 -6 25 -3 25 23 0 16 -22 67 -52
120 -54 92 -56 94 -103 75 -20 -7 -20 -7 -1 14 11 12 17 22 14 22 -2 0 -13
-10 -24 -22z m46 -105 c0 -20 -16 -8 -23 17 -4 17 -3 19 9 9 8 -6 14 -18 14
-26z m1 -133 c-48 -22 -61 -21 -36 4 9 9 31 16 48 16 32 0 32 0 -12 -20z m-61
-9 c0 -5 -7 -11 -15 -15 -15 -5 -20 5 -8 17 9 10 23 9 23 -2z"/>
<path d="M1147 564 c19 -58 33 -77 33 -45 0 25 17 62 34 73 6 4 0 8 -14 8 -14
0 -35 3 -47 6 l-23 6 17 -48z"/>
<path d="M771 559 c25 -49 39 -58 38 -22 -1 41 -11 58 -36 59 l-22 0 20 -37z"/>
<path d="M1380 529 c-12 -22 -8 -35 9 -25 6 4 7 14 4 23 -4 11 -3 14 5 9 7 -4
12 -2 12 3 0 18 -19 12 -30 -10z"/>
<path d="M1338 414 c-21 -19 -38 -37 -38 -39 0 -9 64 16 72 27 7 12 11 48 6
48 -2 0 -20 -16 -40 -36z"/>
<path d="M1079 432 c-8 -2 -27 -10 -44 -17 -16 -7 -48 -21 -70 -30 l-40 -16
34 -15 c41 -17 41 -17 41 -1 0 29 26 46 80 52 30 4 56 7 57 8 5 6 -45 23 -58
19z"/>
<path d="M1287 427 c-11 -29 -9 -43 4 -30 6 6 9 19 7 29 -3 18 -4 18 -11 1z"/>
<path d="M1180 420 c0 -8 5 -22 10 -30 9 -13 10 -13 10 0 0 8 -5 22 -10 30 -9
13 -10 13 -10 0z"/>
<path d="M832 388 c5 -15 37 -18 41 -3 1 6 -9 12 -22 13 -16 3 -22 -1 -19 -10z"/>
<path d="M1206 375 c-3 -8 -1 -15 4 -15 6 0 10 7 10 15 0 8 -2 15 -4 15 -2 0
-6 -7 -10 -15z"/>
<path d="M1086 361 c-3 -4 -19 -11 -36 -14 -38 -8 -39 -27 -2 -27 26 0 62 25
62 43 0 10 -18 9 -24 -2z"/>
<path d="M465 351 c-3 -5 -1 -12 5 -16 5 -3 10 1 10 9 0 18 -6 21 -15 7z"/>
<path d="M1153 343 c9 -2 23 -2 30 0 6 3 -1 5 -18 5 -16 0 -22 -2 -12 -5z"/>
<path d="M845 330 c-3 -5 3 -10 14 -10 12 0 21 5 21 10 0 6 -6 10 -14 10 -8 0
-18 -4 -21 -10z"/>
<path d="M910 330 c0 -5 10 -10 23 -10 18 0 19 2 7 10 -19 13 -30 13 -30 0z"/>
<path d="M418 258 c5 -63 21 -88 23 -37 l2 34 6 -34 c9 -51 31 -52 31 -2 0 23
-3 40 -7 40 -22 -4 -32 3 -35 23 -2 12 -8 23 -14 25 -8 3 -10 -13 -6 -49z m49
-50 c-3 -8 -6 -5 -6 6 -1 11 2 17 5 13 3 -3 4 -12 1 -19z"/>
<path d="M452 288 c5 -15 28 -23 28 -10 0 5 -7 13 -16 16 -10 4 -14 1 -12 -6z"/>
<path d="M518 228 c-1 -44 -2 -46 -5 -15 -5 48 -25 48 -21 0 2 -27 8 -39 21
-41 14 -3 17 5 17 52 0 71 -9 74 -12 4z"/>
<path d="M1197 273 c-12 -11 -8 -34 8 -49 8 -9 15 -11 15 -5 0 6 5 11 11 11 6
0 8 -7 5 -16 -3 -8 -2 -12 4 -9 15 9 12 32 -5 39 -8 3 -15 12 -15 21 0 16 -12
20 -23 8z m21 -38 c-3 -3 -9 2 -12 12 -6 14 -5 15 5 6 7 -7 10 -15 7 -18z"/>
<path d="M955 259 c7 -11 35 -12 35 -1 0 4 -9 8 -20 9 -11 1 -18 -2 -15 -8z"/>
<path d="M1102 258 c-17 -17 -16 -88 2 -88 8 0 19 12 24 28 9 24 10 25 11 5 1
-26 26 -31 35 -7 12 31 7 74 -9 74 -9 0 -18 -7 -21 -15 -6 -14 -8 -14 -18 0
-9 13 -14 13 -24 3z m9 -61 c-8 -8 -11 -4 -11 14 0 33 14 47 18 19 2 -12 -1
-27 -7 -33z m50 10 c-8 -8 -11 -5 -11 9 0 27 14 41 18 19 2 -9 -1 -22 -7 -28z"/>
<path d="M1043 245 c-8 -9 -9 -16 -3 -20 6 -3 11 -21 11 -38 l1 -32 8 30 c17
66 10 91 -17 60z"/>
<path d="M550 229 c0 -5 4 -8 9 -4 5 3 12 1 15 -4 3 -5 -1 -11 -9 -15 -17 -6
-21 -46 -4 -46 6 0 9 7 5 15 -3 8 -1 15 4 15 5 0 11 -8 13 -17 3 -10 5 1 6 25
1 36 -2 42 -19 42 -11 0 -20 -5 -20 -11z"/>
<path d="M609 223 c-12 -15 -12 -16 4 -10 14 5 17 1 17 -29 0 -21 4 -33 10
-29 15 9 12 61 -4 74 -10 9 -17 7 -27 -6z"/>
<path d="M935 232 c-9 -9 -5 -71 5 -77 6 -4 10 8 10 29 0 20 5 36 10 36 6 0
10 -13 10 -30 0 -16 5 -30 11 -30 6 0 9 16 7 38 -2 30 -7 37 -25 38 -12 1 -25
-1 -28 -4z"/>
<path d="M660 190 c0 -22 5 -40 10 -40 6 0 10 17 10 37 0 43 16 34 23 -12 3
-24 4 -21 6 13 1 39 -1 42 -24 42 -22 0 -25 -4 -25 -40z"/>
<path d="M730 215 c0 -8 7 -15 15 -15 8 0 15 4 15 9 0 5 -7 11 -15 15 -9 3
-15 0 -15 -9z"/>
<path d="M770 190 c0 -22 5 -40 10 -40 6 0 10 18 10 40 0 22 -4 40 -10 40 -5
0 -10 -18 -10 -40z"/>
<path d="M808 223 c-9 -20 -2 -67 11 -71 10 -3 12 0 8 12 -4 9 -2 16 3 16 6 0
10 -7 10 -15 0 -8 5 -15 11 -15 6 0 9 16 7 38 -2 29 -8 38 -25 40 -11 2 -23 0
-25 -5z m32 -13 c0 -5 -5 -10 -11 -10 -5 0 -7 5 -4 10 3 6 8 10 11 10 2 0 4
-4 4 -10z"/>
<path d="M870 190 c0 -22 5 -40 10 -40 6 0 10 18 10 40 0 22 -4 40 -10 40 -5
0 -10 -18 -10 -40z"/>
<path d="M900 190 c0 -22 5 -40 10 -40 6 0 10 18 10 40 0 22 -4 40 -10 40 -5
0 -10 -18 -10 -40z"/>
<path d="M730 170 c0 -5 7 -10 16 -10 8 0 12 5 9 10 -3 6 -10 10 -16 10 -5 0
-9 -4 -9 -10z"/>
<path d="M390 136 c16 -17 134 -50 153 -43 7 2 -6 8 -28 12 -22 4 -51 13 -65
20 -14 7 -36 16 -50 20 -22 6 -23 6 -10 -9z"/>
<path d="M1212 126 c-24 -7 -40 -15 -36 -19 4 -4 -6 -5 -22 -1 -17 3 -57 1
-89 -5 -33 -6 -155 -11 -272 -11 -117 -1 -213 -5 -213 -10 0 -25 78 -33 269
-27 243 7 389 34 416 77 7 12 5 11 -53 -4z"/>
</g>
</svg>
